<svg xmlns="http://www.w3.org/2000/svg" width="35" height="48" fill="none"><path fill="var(--color-a)" d="M35 8.7c0-.8-.3-1.6-.8-2.3-.6-.6-1.3-1-2.2-1.2l-1-3.4c-.1-.5-.5-1-1-1.3a3 3 0 0 0-1.7-.5H6.7C6 0 5.5.2 5 .5s-.9.8-1 1.3L3 5.2A4 4 0 0 0 .8 6.5C.2 7.2 0 8.1 0 9c0 .8.3 1.5.8 2.2.5.6 1.1 1 2 1.3L3 19a2 2 0 0 0-1 .6 1.8 1.8 0 0 0-.6 1.3L2 35c0 .4.2.8.5 1.1.3.3.7.5 1.2.6l.2 5.4a6 6 0 0 0 2 4.3c1.2 1 3 1.7 4.6 1.7h14c1.7 0 3.3-.6 4.6-1.7a6 6 0 0 0 2-4.3l.2-5.4a2 2 0 0 0 1.2-.6c.3-.3.5-.7.5-1.1l.6-14a1.8 1.8 0 0 0-.5-1.3c-.3-.3-.7-.5-1-.6l.2-6.6a4 4 0 0 0 2-1.4c.5-.7.7-1.5.7-2.3ZM6.7 2.4h21.8l.8 2.7H5.7l1-2.7ZM28.6 42c0 1-.5 2-1.3 2.6-.8.7-1.8 1.1-2.9 1H10.5c-1 0-2-.3-2.8-1A3.7 3.7 0 0 1 6.4 42l-.2-5.3h22.6l-.2 5.3ZM12 27.9c0-1 .3-2 .9-2.9.6-.8 1.4-1.5 2.4-1.9a5.7 5.7 0 0 1 6 1.1 5 5 0 0 1 1.4 2.6c.2 1 .1 2-.3 3-.4.9-1.1 1.7-2 2.2a5.7 5.7 0 0 1-6.8-.6 5 5 0 0 1-1.6-3.6ZM29.4 19H5.6l-.3-6.5h24.4l-.3 6.5Zm1.7-8.9H4a1.4 1.4 0 0 1-1-.4 1.2 1.2 0 0 1-.3-1c0-.3.1-.6.4-.9.2-.2.5-.3.9-.3H31a1.4 1.4 0 0 1 1 .4 1.3 1.3 0 0 1 .3 1c0 .3-.1.6-.4.9-.2.2-.5.3-.9.3Z"/></svg>