<svg xmlns="http://www.w3.org/2000/svg" width="1200" height="1200" fill="none"><circle cx="600" cy="600" r="565" fill="var(--color-c)" stroke="var(--color-b)" stroke-width="20"/><path fill="var(--color-b)" d="M98 584c12.3-61 63.7-126.2 105.3-170.8 22.7-24.4 61-9.4 64 23.7 2.9 32.5 41.8 50 71 35.4 34.2-17.1 75.8-30.7 108.3-18.8 103.1 37.8-70.8 177-31.5 279.5 13.8 36.1 42.9 67 77.9 93 63.4 46.9 63.2 154.8-15.4 161.6-68.6 6-138.4.6-190.5-30.1C146.2 874.5 65.8 744.3 98 584Z"/><path fill="var(--color-b)" d="m424.7 412-54.2 10a73.6 73.6 0 0 1-53.3-134.2L444 205.6A83.5 83.5 0 0 1 567 244.9a83.5 83.5 0 0 0 52 48.7l29.8 9.6A149.7 149.7 0 0 1 750.7 469l-33.4 213.4a123.9 123.9 0 0 1-220.1 56.9L494 735a132.2 132.2 0 0 1-19-128.8l35-91a76.8 76.8 0 0 0-85.3-103.1Z"/><circle cx="600" cy="600" r="75" fill="var(--color-a)"/><circle cx="600" cy="600" r="375" stroke="var(--color-a)" stroke-width="8"/><circle cx="600" cy="600" r="250" stroke="var(--color-a)" stroke-width="8"/><circle cx="599.5" cy="599.5" r="475.5" stroke="var(--color-a)" stroke-width="8"/><path fill="var(--color-a)" d="M621.6 165a37.5 37.5 0 0 0 37.4-37.6 37.5 37.5 0 0 0-37.4-37.7c0-25.2 37.4-35.7 25-35.7-18 0-65.5 31.4-62.5 73.4a37.5 37.5 0 0 0 37.5 37.6ZM599.6 388a37.5 37.5 0 0 0 37.4-37.6 37.5 37.5 0 0 0-37.4-37.7c0-25.2 37.4-35.7 25-35.7-18 0-65.5 31.4-62.5 73.4a37.5 37.5 0 0 0 37.5 37.6ZM907.6 455a37.5 37.5 0 0 0 53 0 37.5 37.5 0 0 0 .2-53.2c17.9-17.8 51.7 1.2 43-7.5-12.7-12.7-68.6-24.1-96.1 7.7a37.5 37.5 0 0 0-.1 53ZM292 455a37.5 37.5 0 0 0 0-53.1 37.5 37.5 0 0 0-53.2-.2c-17.8-17.8 1.2-51.7-7.5-43-12.7 12.7-24.1 68.6 7.7 96.1a37.5 37.5 0 0 0 53 .2ZM432.3 727.5a37.5 37.5 0 0 0-52.2 9.3c-12 17-7.9 40.5 9 52.3-14.4 20.7-51.1 7.8-41 15 14.7 10.2 71.7 11.7 93.3-24.3 12-17 7.9-40.5-9-52.3ZM222.3 828.5a37.5 37.5 0 0 0-52.2 9.3c-12 17-7.9 40.5 9 52.3-14.4 20.7-51.1 7.8-41 15 14.7 10.2 71.7 11.7 93.3-24.3 12-17 7.9-40.5-9-52.3ZM764.7 727.5a37.5 37.5 0 0 0-9.1 52.3c11.9 17 35.3 21.3 52.2 9.4 14.5 20.7-10.1 50.7 0 43.7 14.7-10.3 35.6-63.4 9.1-96a37.5 37.5 0 0 0-52.2-9.4ZM974.7 828.5a37.5 37.5 0 0 0-9.1 52.3c11.9 17 35.3 21.3 52.2 9.4 14.5 20.7-10.1 50.7 0 43.7 14.7-10.3 35.6-63.4 9.1-96a37.5 37.5 0 0 0-52.2-9.4Z"/></svg>