<svg xmlns="http://www.w3.org/2000/svg" width="33" height="48" fill="none"><path fill="var(--color-a)" d="M8.3 16h8.1V0h-8a8 8 0 1 0 0 16Z"/><path fill="var(--color-b)" d="M8.3 32h8.1V16h-8a8 8 0 1 0 0 16Z"/><path fill="var(--color-c)" d="M8.3 48a8 8 0 0 0 8-8v-8h-8a8 8 0 1 0 0 16Z"/><path fill="var(--color-b)" d="M24.5 0h-8v16h8a8 8 0 0 0 5.7-13.7A8.1 8.1 0 0 0 24.5 0Z"/><path fill="var(--color-c)" d="M30.2 29.7a8 8 0 0 0 0-11.4A8.1 8.1 0 0 0 16.4 24a8 8 0 0 0 2.4 5.7 8.1 8.1 0 0 0 11.4 0Z"/></svg>