<svg xmlns="http://www.w3.org/2000/svg" width="41" height="48" fill="none"><path fill="var(--color-a)" d="m3.16 15.35-.75-1.34.75-.44v-.9h1.5l2.43-1.47A3.96 3.96 0 0 0 3.05 10 4.14 4.14 0 0 0 .55 12a4.45 4.45 0 0 0-.4 3.25 4.27 4.27 0 0 0 3 3.05v-2.95Z"/><path fill="var(--color-a)" d="M5.1 14.74 3.4 15.77l-.23-.42v2.95c.63.16 1.3.16 1.95-.01v-3.55Z"/><path fill="var(--color-a)" d="M5.18 18.27a4.14 4.14 0 0 0 2.49-2 4.45 4.45 0 0 0 .39-3.3L5.1 14.73v3.55l.07-.02Z"/><path fill="var(--color-a)" d="m7.1 11.2-2.44 1.46h.45v2.08l2.95-1.78a4.34 4.34 0 0 0-.97-1.76Z"/><path fill="var(--color-a)" d="m3.16 15.35.23.42 1.72-1.03v-2.08h-.45l-1.5.9v1.8ZM2.41 14.01l.75 1.34v-1.78L2.4 14Z"/><path fill="var(--color-a)" d="M3.16 12.66v.9l1.5-.9h-1.5ZM3.16 29.7c.63-.16 1.3-.16 1.95 0V18.3c-.65.17-1.32.17-1.95.01v11.4Z"/><path fill="var(--color-a)" d="m3.74 36.58-1.69-1.02.38-.68h-.77v-2.03h1.38l.12-.2V29.7a4.27 4.27 0 0 0-2.99 3.05A4.45 4.45 0 0 0 .57 36a4.01 4.01 0 0 0 6.52.81l-2.45-1.47h-.21l-.7 1.24ZM7.68 31.72c-.2-.35-.44-.67-.72-.95L5.8 32.85h2.3a4.4 4.4 0 0 0-.43-1.13Z"/><path fill="var(--color-a)" d="m5.46 33.48 2.32 1.4h.33c.16-.67.16-1.37 0-2.03h-2.3l-.35.63ZM5.1 30.04v2.8h.7l1.16-2.07a4.07 4.07 0 0 0-1.7-1.02l-.15.3Z"/><path fill="var(--color-a)" d="m3.77 32.46.64.39h.7v-2.8l-1.34 2.41ZM5.1 29.7a3.94 3.94 0 0 0-1.94 0v2.95l.23-.42.38.23 1.34-2.42v-.33Z"/><path fill="var(--color-a)" d="m3.16 34.44.73.44h.79l.43-.77v-.84l-.7-.42h-.85l-.4.72v.87ZM7.78 34.88l-2.32-1.4-.35.63v.77h2.67Z"/><path fill="var(--color-a)" d="M4.64 35.34 7.1 36.8c.46-.49.79-1.1.98-1.76l-.29-.17H5.11v.46h-.47ZM2.05 35.56l1.69 1.02.69-1.24H3.16v-.46h-.73l-.38.68Z"/><path fill="var(--color-a)" d="M3.16 35.34h1.27l.05-.1-.6-.36h-.72v.46ZM4.68 34.88h-.8l.6.36.2-.36Z"/><path fill="var(--color-a)" d="M4.64 35.34h.47v-.46h-.43l-.2.36.16.1ZM5.1 34.11l-.42.77h.43v-.77ZM3.89 34.88l-.73-.44v.44h.73ZM2.8 34.22l-.37.66h.73v-.44l-.37-.22Z"/><path fill="var(--color-a)" d="M1.66 32.85v2.03h.77l.36-.66-.38-.23.63-1.14H1.66Z"/><path fill="var(--color-a)" d="m3.04 32.85-.63 1.14.38.23.37-.65v-.72h-.12ZM3.16 34.44v-.87l-.37.65.37.22ZM3.39 32.23l-.23.42v.2h.4l.2-.39-.37-.23ZM3.16 33.57l.4-.72h-.4v.72ZM3.16 32.65l-.12.2h.12v-.2ZM4.4 32.85l-.63-.39-.21.39h.85ZM5.1 32.85h-.7l.7.42v-.42ZM5.46 33.48l.35-.63h-.7v.42l.35.21ZM5.1 33.27v.84l.36-.63-.35-.2ZM20.05 42.93l.85 1.54 1.22-.73.1-.17-1.62-.97-.55.33Z"/><path fill="var(--color-a)" d="M23.9 41.35a4.25 4.25 0 0 0-.38-.51L20.6 42.6l1.61.97-.1.17 2.27-1.37c-.11-.36-.27-.7-.48-1.02Z"/><path fill="var(--color-a)" d="m20.9 44.47-.85-1.54.55-.33-3.07-1.85c-.45.5-.79 1.1-.97 1.76l4.68 2.82.88-1.6-1.22.74ZM19.7 39.52a4.05 4.05 0 0 0-2.17 1.23l3.07 1.85 2.92-1.76a3.94 3.94 0 0 0-3.83-1.32Z"/><path fill="var(--color-a)" d="M18.21 47.28a3.98 3.98 0 0 0 5.18-.54 4.38 4.38 0 0 0 1-4.37l-2.27 1.37-.88 1.6-4.68-2.83a4.39 4.39 0 0 0 1.65 4.77Z"/><path fill="var(--color-a)" d="M8.07 35.05a4.34 4.34 0 0 1-.98 1.77l9.47 5.7c.18-.67.52-1.27.97-1.77l-9.46-5.7ZM33.8 36.7a4.34 4.34 0 0 1-.85-1.54l-9.43 5.68a4.25 4.25 0 0 1 .86 1.53l9.41-5.66Z"/><path fill="var(--color-a)" d="M36.07 35.34h-.2v-.46h-2.46l-.46.28c.17.58.46 1.1.84 1.55l2.28-1.37ZM35.87 34.1l.43.78h.52l.46-.27-.85-1.54-.56.33v.7ZM33.41 34.88h2.46v-.78l-.29-.52-2.17 1.3Z"/><path fill="var(--color-a)" d="M32.87 32.85a4.47 4.47 0 0 0 0 2.03h.54l2.17-1.3-.4-.73h-2.31Z"/><path fill="var(--color-a)" d="M35.87 33.4v-.55h-.7l.41.73.3-.18ZM36.3 34.88l-.43-.78v.78h.43ZM35.87 35.34h.2l.36-.22-.13-.24h-.43v.46ZM37.82 35.34v-.46h-1l-.39.24.12.22h1.27ZM39.3 34.88v-2.03h-1.48v.71l.73 1.32h.75Z"/><path fill="var(--color-a)" d="m36.43 33.07.85 1.54-.46.27h1v-1.32l-.4-.71h-1.55v.55l.56-.33ZM37.82 29.7a3.95 3.95 0 0 0-1.95 0v.34l1.56 2.8h.4V29.7Z"/><path fill="var(--color-a)" d="M35.87 32.85h1.56l-1.56-2.81v2.8Z"/><path fill="var(--color-a)" d="M35.71 29.75c-.63.2-1.21.54-1.69 1.01l1.16 2.09h.7v-2.81l-.17-.29ZM32.87 32.85h2.3l-1.15-2.09a4.26 4.26 0 0 0-1.15 2.09ZM38.55 34.88l-.73-1.32v1.32h.73ZM36.43 35.12l-.36.22h.48l-.12-.22Z"/><path fill="var(--color-a)" d="M36.82 34.88h-.52l.13.24.4-.24ZM35.87 34.1v-.7l-.29.18.3.52ZM37.82 33.56v-.71h-.4l.4.71ZM37.24 36.58l1.7-1.02-.39-.68h-.73v.46h-1.27l.7 1.24ZM32.9 34.97l.05.2.46-.29h-.54l.02.09ZM8.11 32.85c.16.66.16 1.36 0 2.03h24.76a4.47 4.47 0 0 1 0-2.03H8.1ZM19.35 8.39a3.98 3.98 0 0 1-1.7-1.02L5.28 29.75c.64.2 1.22.55 1.69 1.02L19.35 8.39ZM23.32 7.37a4.08 4.08 0 0 1-1.68 1.02l12.38 22.37a4.07 4.07 0 0 1 1.7-1L23.31 7.36Z"/><path fill="var(--color-a)" d="m20.14 5.69-2.33 1.4-.15.28a4.08 4.08 0 0 0 1.69 1.02l1.14-2.07-.35-.63Z"/><path fill="var(--color-a)" d="M19.35 8.39a3.94 3.94 0 0 0 2.29 0l-1.15-2.07-1.14 2.07ZM23.17 7.1l-2.33-1.4-.35.62 1.15 2.07a4.02 4.02 0 0 0 1.68-1.02l-.15-.27ZM21.83 4.67l-.64.39-.35.63 2.33 1.4-1.34-2.42ZM17.81 7.1l2.33-1.41-.34-.62-.65-.4-1.34 2.42Z"/><path fill="var(--color-a)" d="m18.76 4.44.23-.4-2.43 1.46a4.4 4.4 0 0 0 .98 1.76l.27-.17 1.34-2.41-.39-.24Z"/><path fill="var(--color-a)" d="M7.1 11.2c.44.5.77 1.1.96 1.76l9.48-5.7a4.3 4.3 0 0 1-.98-1.76l-9.47 5.7Z"/><path fill="var(--color-a)" d="m20.87 1.57 1.69 1.01-.68 1.22.15.26 2.39 1.44a4.44 4.44 0 0 0-1.03-4.25A4.02 4.02 0 0 0 20.49 0c-1.09 0-2.13.45-2.9 1.25a4.37 4.37 0 0 0-1.03 4.25l2.43-1.46.12-.22-.69-1.24 1.69-1.02.38.7.38-.7Z"/><path fill="var(--color-a)" d="M23.44 7.26a4.3 4.3 0 0 0 .98-1.76l-2.4-1.44.21.37-.4.24 1.34 2.43.27.16ZM20.14 5.69l.35.63.35-.63-.35-.2-.35.2ZM20.49 3.13l.37-.22-.37-.66-.37.67.37.21ZM20.49 3.13l-.37-.21-.36.65.73-.44ZM20.86 2.91l-.37.22.73.45-.36-.67Z"/><path fill="var(--color-a)" d="m21.83 4.67.4-.24-.2-.37-.22-.13-.2.36.22.38ZM18.76 4.44l.39.24.22-.4-.2-.35-.18.1-.23.41Z"/><path fill="var(--color-a)" d="m19.17 3.93.2.36.4-.72-.6.36Z"/><path fill="var(--color-a)" d="m19.1 3.82-.11.22.18-.11-.06-.11ZM22.03 4.06l-.15-.26-.07.13.22.13Z"/><path fill="var(--color-a)" d="m21.62 4.29.2-.36-.6-.35.4.7ZM19.8 5.07l.34.62.35-.2-.7-.42ZM20.84 5.7l.35-.64-.7.42.35.21ZM19.15 4.68l.65.39-.43-.78-.22.39ZM21.19 5.06l.64-.39-.21-.38-.43.77ZM22.56 2.58l-1.69-1.01-.38.68.37.66.4-.24.62 1.13.68-1.22Z"/><path fill="var(--color-a)" d="m20.1 1.56-1.68 1.02.69 1.24.63-1.14.38.24.37-.67-.38-.69Z"/><path fill="var(--color-a)" d="m19.74 2.68-.63 1.14.06.1.6-.35.35-.65-.38-.24ZM21.88 3.8l-.62-1.13-.4.24.36.67.6.35.06-.13Z"/><path fill="var(--color-a)" d="m19.8 5.07.69.41.7-.42.43-.77-.4-.71-.73-.45-.73.44-.4.72.44.78ZM35.87 12.66h.44l-2.43-1.46c-.44.5-.78 1.1-.96 1.77l2.95 1.77v-2.08Z"/><path fill="var(--color-a)" d="M24.42 5.5a4.38 4.38 0 0 1-.98 1.76l9.48 5.7c.18-.66.52-1.26.96-1.76l-9.46-5.7ZM32.9 13.03a4.45 4.45 0 0 0 .41 3.25 4.14 4.14 0 0 0 2.56 2.01v-3.55l-2.95-1.77-.02.06ZM37.82 15.36l.74-1.34-.74-.45v1.79ZM36.3 12.66h-.43v2.08l1.72 1.04.23-.42v-1.79l-1.51-.9Z"/><path fill="var(--color-a)" d="m37.59 15.78-1.72-1.04v3.55c.65.17 1.32.17 1.95.01v-2.94l-.23.42ZM37.82 12.66h-1.51l1.51.91v-.9Z"/><path fill="var(--color-a)" d="M37.93 10.01a3.96 3.96 0 0 0-4.05 1.2l2.43 1.45h1.51v.91l.74.45-.74 1.34v2.94c.38-.1.75-.24 1.1-.45a4.27 4.27 0 0 0 1.9-2.6c.29-1.1.14-2.26-.4-3.25a4.14 4.14 0 0 0-2.5-1.99ZM35.87 29.7a3.95 3.95 0 0 1 1.95 0V18.3c-.63.16-1.3.16-1.95 0v11.4ZM39.3 32.85v2.03h-.75l.38.68-1.69 1.02-.69-1.24h-.48l-2.28 1.37a3.96 3.96 0 0 0 4.8 1.03 4.2 4.2 0 0 0 1.96-5.75 4.6 4.6 0 0 0-2.73-2.29v3.15h1.48Z"/></svg>