<svg xmlns="http://www.w3.org/2000/svg" width="43" height="48" fill="none"><path fill="var(--color-b)" d="m21.48 33.32-6-1.6-.38-4.22H9.7l.75 8.32 11.03 3.02.02-.01h-.02v-5.5Z"/><path fill="var(--color-c)" d="M21.5 19.56v5.3h6.61l-.62 6.87-5.99 1.59v5.5l11.02-3 .08-.9 1.26-13.94.13-1.42H21.5Z"/><path fill="var(--color-b)" d="M21.48 19.56h-7.1l-.5-5.43h7.6v-5.3H8l.13 1.42 1.32 14.6h12.03v-5.3Z"/><path fill="var(--color-c)" d="M21.5 8.83v5.3h12.98l.11-1.2.25-2.68.13-1.42H21.5Z"/><path fill="var(--color-a)" fill-rule="evenodd" d="M3.91 43.2 0 0h43l-3.92 43.2-17.6 4.8L3.9 43.2Zm31.82-2.76L21.5 44.33v-5.5h-.02l-11.03-3-.76-8.33h5.4l.4 4.23 5.99 1.6.02-.01v-8.47H9.45l-1.32-14.6L8 8.83h13.5v-5.3h17.58l-3.35 36.91Z" clip-rule="evenodd"/><path fill="var(--color-b)" d="m21.5 44.33 14.23-3.89 3.35-36.9H21.5v5.3h13.47l-.13 1.41-.25 2.69-.1 1.19H21.5v5.43H33.99l-.13 1.42-1.26 13.95-.08.9-11.02 3v5.5Z"/><path fill="var(--color-a)" d="M21.48 19.56h.02v-5.43H13.88l.5 5.43h7.1Z"/><path fill="var(--color-b)" d="M28.11 24.85H21.5v8.47l5.99-1.6.62-6.87Z"/></svg>