<svg xmlns="http://www.w3.org/2000/svg" width="48" height="48" fill="none"><path fill="var(--color-a)" d="m3.4 44.68-.04.38h-.75c-.47 0-.93 0-1.4.02h-.04c-.07-.01-.19-.01-.19-.03a1.5 1.5 0 0 1 0-.33v-.01l.06-.04.36-.08c.23-.06.3-.15.32-.39l.02-.79v-1.94c0-.15-.05-.26-.19-.32a17.1 17.1 0 0 0-.5-.22c-.08-.03-.18-.05-.17-.16 0-.1.1-.14.2-.16l1.18-.27c.13-.03.25-.09.4-.14l.02.24-.02.37c0 .04.02.1.05.12.02.02.08-.01.11-.04.34-.25.7-.47 1.1-.6.62-.2 1.16-.02 1.54.53.13.19.13.19.31.05a4.1 4.1 0 0 1 1.02-.56c.81-.3 1.6.07 1.87.9.1.3.15.6.15.92l-.01 2.09c0 .17.06.27.22.32l.58.16-.05.36h-.67c-.52 0-1.05 0-1.58.02-.09 0-.11-.02-.12-.11-.01-.28-.01-.28.24-.34l.09-.02c.25-.07.34-.15.34-.4 0-.75.02-1.49-.02-2.23-.04-.77-.64-1.17-1.38-.98-.24.07-.46.18-.66.32-.07.05-.09.11-.08.2l.04.98v1.71c0 .24.08.32.3.38l.34.08.07.01v.33c0 .07-.06.07-.12.07l-.98-.02-1.2.02h-.1v-.34c0-.02.05-.06.08-.07l.4-.08c.17-.04.25-.13.26-.3.04-.8.07-1.59 0-2.38-.02-.15-.06-.3-.13-.45-.2-.45-.66-.64-1.18-.5-.25.06-.47.18-.69.32a.31.31 0 0 0-.15.28v2.07l.01.3v.3c0 .22.1.33.3.37l.43.08Z"/><path fill="var(--color-a)" fill-rule="evenodd" d="M15.28 42.59a2.7 2.7 0 0 1-.53 1.64c-.4.51-.94.79-1.55.9-.73.14-1.42.02-2-.48a2.03 2.03 0 0 1-.6-.87 3.03 3.03 0 0 1-.13-1.72c.13-.63.48-1.1 1.03-1.43a2.72 2.72 0 0 1 2.04-.36c.93.21 1.47.82 1.67 1.75.04.18.04.38.07.57Zm-1.05.39h.02c-.04.27-.06.55-.12.81-.18.72-.81 1.06-1.51.8a1.58 1.58 0 0 1-.93-.9 3.13 3.13 0 0 1-.16-2.11c.14-.55.59-.95 1.26-.86.42.06.74.27.99.61.32.46.43.99.45 1.54v.11Z" clip-rule="evenodd"/><path fill="var(--color-a)" d="M17.84 40.18c.01.07.04.15.04.22l-.02.44v.13l.12-.1c.34-.27.7-.51 1.13-.64.76-.23 1.52.19 1.77.97.1.3.13.6.13.91l.02 2.07c0 .24.03.29.27.36.13.04.26.07.4.09.08.01.1.04.1.11v.07c0 .29-.02.3-.3.3h-1.98c-.18.01-.18.01-.2-.18v-.11c0-.17 0-.17.17-.2.11 0 .22-.03.33-.06.11-.03.17-.11.18-.22l.02-.17c-.01-.75 0-1.5-.04-2.26-.03-.6-.5-.97-1.1-.93-.3.02-.58.12-.82.3-.16.1-.19.27-.19.45a345.82 345.82 0 0 0 .04 2.57c.01.17.07.24.24.27.15.04.31.06.48.09l.01.13c0 .3-.02.32-.32.32h-2.04c-.1.01-.15-.02-.15-.13v-.04c-.02-.28 0-.29.25-.33l.12-.02c.27-.07.35-.14.35-.42l.03-2.69c0-.13-.05-.23-.17-.28l-.5-.22c-.1-.04-.2-.06-.2-.19-.01-.1.09-.17.22-.2.27-.05.54-.1.8-.17.26-.06.52-.15.81-.24Z"/><path fill="var(--color-a)" fill-rule="evenodd" d="M27.12 40.28c.06.3.06.57-.16.77-.21.2-.48.13-.75.09l.06.38c.1.9-.29 1.57-1.12 1.96-.31.14-.65.2-.99.22-.17.01-.32.14-.33.28-.02.15.07.3.25.34.2.05.42.06.64.08.46.06.93.08 1.38.16.69.13 1.07.73.95 1.43-.1.62-.46 1.07-.96 1.41-.84.58-1.75.75-2.73.46a1.49 1.49 0 0 1-1.1-1.14c-.06-.3.01-.57.24-.77.26-.25.55-.46.83-.69l.1-.09-.11-.07c-.29-.14-.51-.32-.6-.64-.03-.11 0-.19.1-.24a26.79 26.79 0 0 0 .67-.44c.1-.07.09-.12-.02-.16-.26-.1-.49-.24-.67-.45-.3-.35-.38-.78-.35-1.22.04-.7.41-1.16 1.03-1.46a2.54 2.54 0 0 1 2.2-.05c.27.12.56.14.86.12.22-.01.41-.1.58-.28Zm-3.72 5.4c.32-.33.49-.4 1.04-.4.34.01.72.03 1.1.14.32.1.6.27.67.63.1.45-.12.9-.54 1.13-.4.22-.84.24-1.28.2a1.55 1.55 0 0 1-1-.46.86.86 0 0 1 0-1.25Zm.02-3.45c-.03-.15-.04-.3-.06-.46.01-.22.05-.43.14-.63.29-.6 1-.57 1.38-.3.17.12.3.29.36.48.16.4.18.86.04 1.29-.2.63-.77.72-1.22.52-.38-.18-.55-.52-.64-.9ZM32.56 42.52c0 .84-.22 1.52-.81 2.02-.75.65-1.91.87-2.86.38-.41-.2-.7-.52-.9-.92a2.95 2.95 0 0 1-.22-1.97c.15-.67.56-1.16 1.16-1.47a2.74 2.74 0 0 1 1.97-.28c.87.21 1.5.93 1.63 1.84l.03.4Zm-1.04.45h.03c-.04.28-.06.56-.13.83-.18.72-.8 1.04-1.5.8a1.47 1.47 0 0 1-.82-.7 3.03 3.03 0 0 1-.25-2.38c.15-.55.6-.85 1.13-.8.48.03.85.26 1.12.64.28.42.39.88.42 1.38v.23Z" clip-rule="evenodd"/><path fill="var(--color-a)" d="m25.15 35.63-.36.94.44.17-.08-1.1ZM23.7 32.25l.22.77.07-.1c.35-.52.4-1.2.66-1.78.06-.14.14-.28.24-.41-.26-.97-.4-1.97-.42-2.97h-.04l-.24 2.4c-.05.4-.16.8-.24 1.2l-.26.89Z"/><path fill="var(--color-a)" d="m25.26 31.56-.37-.83c-.1.13-.18.27-.24.41-.26.59-.3 1.26-.66 1.78l-.07.1.2 1.2.08-.09c.51-.63.53-1.6.93-2.35.04-.08.08-.15.13-.21v-.01Z"/><path fill="var(--color-a)" d="M25.26 31.56c-.05.07-.1.14-.13.22-.4.74-.37 1.68-.93 2.35l-.07.09.1 1.25v-.01c.1-.12.17-.24.23-.37.2-.63.34-1.4.67-1.97a2.05 2.05 0 0 1 .17-.26l.11-.36c-.05-.25.04-.46.22-.63l-.37-.31Z"/><path fill="var(--color-a)" d="M25.03 34.68c.02-.06.08-.1.12-.15l.15-1.67a1.95 1.95 0 0 0-.17.26c-.35.6-.39 1.35-.67 1.97l-.05.14c-.03.08-.11.15-.17.23l-.01.01c0 .26-.02.51 0 .77 0 .06.09.12.14.18.05-.1.12-.18.15-.28l.51-1.46ZM25.73 31.94l-.1-.07c-.18.17-.27.38-.22.63l.32-.56Z"/><path fill="var(--color-a)" d="M24.52 36.14c-.03.1-.1.19-.15.28l.42.15.36-.94v-1.1c-.04.05-.1.1-.12.15l-.5 1.46Z"/><path fill="var(--color-b)" d="M32.16 21.9h-.22a.9.9 0 0 0-.14 0l-2.99.5c-1.03.16-2.06.32-3.1.5-.3.06-.68 0-.88.32a.76.76 0 0 0-.08.18l-.06.02-.11 2.7-.05.74-.05.73-.01.17c.02 1 .16 2 .42 2.97l.37.83.37.3.1.08c.39-.32.8-.6 1.16-.95.65-.64 1.29-1.28 1.86-1.98.75-.9 1.39-1.89 1.9-2.94.35-.7.68-1.42.95-2.16.23-.65.38-1.34.57-2h-.01Z"/><path fill="var(--color-b)" d="M32.52 16.3c-.11-1.48-.46-2.91-.94-4.31l-1.24.19-2.82.44-2.36.38-.48.09.05 7.3-.04 3.03.07-.02a.76.76 0 0 1 .07-.18c.2-.31.58-.26.89-.32 1.03-.18 2.06-.34 3.1-.5l2.98-.5h.36l.06-.14c.38-1.8.44-3.63.3-5.46Z"/><path fill="var(--color-b)" d="m24.68 13.09.48-.09 2.36-.38 2.82-.44 1.24-.19c-1-3.12-2.6-5.89-4.85-8.26-.57-.6-1.2-1.16-1.6-1.9-.26-.48-.5-.96-.74-1.44 0 .2-.02.4-.01.6.02.34.08.69.1 1.03v.13a52.17 52.17 0 0 1 .05 1.8l.05 3.1.05 4.94.02.28c0 .17.02.33.03.5v.32Z"/><path fill="var(--color-c)" d="M22.18 30.93c.48.46 1 .88 1.51 1.32l.26-.9c-.05-.08-.14-.16-.17-.26l-4.91-14.73-1.57-4.68c-.02-.07-.08-.12-.12-.17a.75.75 0 0 1-.04-.05l-.03.05a24.8 24.8 0 0 0-.93 5.46c-.05.7 0 1.4.04 2.1.06 1 .23 1.99.49 2.95a18.87 18.87 0 0 0 5.47 8.91ZM24.69 23.42l.04-3.03-.2.24-.14-.32-2.62-7.9-2.03-6.06c-.03-.1-.1-.17-.15-.26L18.13 8.8c.06.08.15.16.18.25l2 5.98 2.47 7.43 1.52 4.49.23-.09.05-.75.1-2.7Z"/><path fill="var(--color-c)" d="m24.73 20.4-.05-7.31v-.32c-.07-.08-.18-.14-.21-.24l-1.4-4.16a1144.43 1144.43 0 0 0-1.5-4.45c-.02-.09-.1-.15-.16-.23l-1.82 2.4c.05.09.12.17.15.26l2.03 6.06 2.62 7.9c.03.1.09.2.14.32l.2-.24ZM17.14 11.46l.04.05c.04.05.1.1.12.17l1.57 4.68 4.91 14.73c.03.1.11.18.17.26.08-.4.19-.79.24-1.19.1-.8.16-1.6.24-2.4l.05-.17.05-.73-.23.09-1.52-4.5-2.46-7.42-2.01-5.98c-.03-.1-.12-.17-.18-.25l-.99 2.66Z"/><path fill="var(--color-c)" d="M21.4 3.69c.07.08.15.14.18.23a967.7 967.7 0 0 1 1.5 4.45l1.39 4.16c.03.1.14.16.21.24l-.03-.5-.02-.28-.05-4.95a390.01 390.01 0 0 0-.1-4.89v-.13c-.02-.34-.08-.69-.1-1.03v-.6L24.24 0l-.04.16c-.02.77-.46 1.3-1 1.8-.62.55-1.2 1.15-1.78 1.73Z"/><path fill="var(--color-b)" fill-rule="evenodd" d="m33.5 38.25.19-.36c.03-.07.08-.09.16-.08l1.33.03 1.14-.01c.42 0 .85-.03 1.28-.02a3.9 3.9 0 0 1 1.63.39c.61.3 1.08.76 1.4 1.37a4.38 4.38 0 0 1 .19 3.1 3.3 3.3 0 0 1-1.38 1.76c-.5.33-1.06.52-1.65.63-.63.12-1.26.09-1.88.09l-2.07-.02c-.12 0-.14-.03-.1-.14l.02-.1c.07-.22.1-.23.32-.27.15-.02.3-.08.43-.16.07-.05.1-.17.13-.27a1 1 0 0 0 .02-.27v-.3l.03-3.75c0-.34 0-.68-.03-1.02-.01-.24-.14-.4-.42-.46l-.66-.11-.08-.03Zm6.22 2.47c.05.26.06.53.1.8-.03.62-.11 1.21-.4 1.76a2.27 2.27 0 0 1-1.71 1.27c-.5.08-.99.06-1.46-.13-.3-.12-.4-.38-.41-.68l-.01-.9a1034.71 1034.71 0 0 1 0-4.14c.01-.24.06-.31.29-.33.99-.09 1.94.02 2.72.72.49.44.77 1 .88 1.63ZM41.72 45.1c0-.16.06-.3.14-.42.03-.04.1-.04.16-.05l.45-.09c.16-.03.24-.14.26-.3l.03-.3.02-2.49v-2.64c-.01-.27-.14-.4-.4-.44l-.58-.09c-.07 0-.1-.04-.07-.1.05-.11.09-.22.15-.32.03-.04.1-.05.16-.05l.81.03 2.37-.02c.46 0 .9.08 1.31.3.45.24.7.62.78 1.12.07.54-.09.99-.48 1.35-.16.14-.36.24-.55.36l-.06.04.5.18c.46.2.83.5 1.03.97.15.38.15.78.06 1.17a2.08 2.08 0 0 1-1.07 1.33c-.49.29-1.02.46-1.58.49-.53.02-1.05.01-1.57.02h-.3l-1.52-.04-.05-.01Zm2.18-2.4v-1.1c0-.09.01-.14.1-.13.35 0 .7 0 1.04.02.3.01.6.1.86.25.41.22.66.56.73 1.03.05.35.03.7-.12 1.03-.2.44-.57.68-1.03.76a2.6 2.6 0 0 1-1.1-.05c-.28-.07-.39-.29-.44-.53-.04-.16-.03-.34-.04-.5v-.78Zm1.34-1.8-.61.03-.63-.02c-.08 0-.12-.04-.12-.13l.03-2.16c0-.17.07-.24.24-.25.4 0 .8 0 1.2.13.5.19.81.62.8 1.16 0 .2 0 .4-.07.6a.93.93 0 0 1-.84.64Z" clip-rule="evenodd"/></svg>