<svg xmlns="http://www.w3.org/2000/svg" width="94" height="48" fill="none"><path fill="var(--color-a)" d="M91.13 26.2a10.9 10.9 0 0 0-4.58.64c-.35.15-.91.15-.97.6.2.2.22.5.38.74.3.48.8 1.11 1.24 1.45.48.36.98.75 1.5 1.07.93.56 1.97.88 2.86 1.44.52.33 1.05.75 1.56 1.13.25.18.42.47.75.58v-.05c-.17-.22-.21-.52-.37-.75l-.7-.7c-.69-.9-1.56-1.69-2.48-2.35-.74-.52-2.39-1.24-2.7-2.09l-.05-.05c.52-.06 1.14-.25 1.62-.37.8-.22 1.53-.16 2.37-.38l1.13-.32v-.21c-.42-.44-.73-1-1.19-1.4a34.66 34.66 0 0 0-3.87-2.89c-.76-.47-1.68-.77-2.48-1.17-.27-.14-.74-.2-.92-.43-.42-.53-.64-1.2-.97-1.82a69.15 69.15 0 0 1-1.94-4.07c-.4-.93-.67-1.84-1.18-2.68-2.45-4-5.08-6.4-9.16-8.77-.86-.5-1.9-.7-3.01-.97l-1.78-.1c-.36-.15-.74-.6-1.08-.8-1.35-.86-4.81-2.7-5.81-.27-.64 1.53.94 3.02 1.5 3.8.4.54.9 1.15 1.19 1.76.19.4.22.8.38 1.23.39 1.05.73 2.2 1.24 3.16.25.5.53 1 .86 1.45.2.26.54.38.59.8-.33.46-.35 1.18-.54 1.76-.84 2.64-.52 5.92.7 7.87.38.6 1.26 1.89 2.48 1.4 1.06-.44.83-1.77 1.13-2.95.07-.27.03-.46.16-.64v.05l.97 1.93c.72 1.15 2 2.35 3.07 3.16.56.42 1 1.14 1.72 1.39v-.06h-.05c-.14-.21-.36-.3-.54-.48-.42-.4-.89-.92-1.24-1.39a32.5 32.5 0 0 1-2.64-4.28c-.37-.72-.7-1.52-1.02-2.25-.12-.28-.12-.7-.38-.85-.34.53-.86.97-1.13 1.6-.43 1.01-.48 2.25-.64 3.53l-.11.06c-.75-.18-1.02-.95-1.3-1.6-.7-1.67-.83-4.35-.2-6.27.15-.5.88-2.06.58-2.52-.14-.45-.6-.72-.86-1.07a8.35 8.35 0 0 1-.86-1.5c-.58-1.3-.85-2.75-1.45-4.06-.3-.63-.79-1.27-1.19-1.82-.45-.62-.95-1.08-1.3-1.82-.11-.27-.28-.7-.1-.97.06-.18.14-.26.32-.32.32-.24 1.19.08 1.51.21.87.36 1.59.7 2.32 1.18.35.23.7.68 1.13.8h.48c.76.18 1.61.06 2.32.27 1.25.38 2.37.97 3.4 1.6a20.93 20.93 0 0 1 7.37 8.04c.28.53.4 1.04.65 1.6.5 1.14 1.12 2.31 1.61 3.43.5 1.1.98 2.23 1.67 3.16.37.48 1.78.74 2.43 1.01.45.2 1.19.39 1.61.64.82.5 1.6 1.08 2.37 1.61.38.27 1.56.86 1.62 1.34ZM24.8 33.88h3.08v6.66c-.03.36.12 1.21 1.8 1.24h6.7v-7.93h3.1l-.01 10.72v.14c.02 2.67-3.33 3.25-4.88 3.29h-9.72v-2.06h9.74c1.99-.2 1.75-1.19 1.75-1.52v-.8h-6.55c-3.04-.03-4.99-1.35-5.01-2.87 0-.14.07-6.8 0-6.87ZM.88 43.72h3.08v-12.1l4.77 10.55c.56 1.28 1.33 1.73 2.84 1.73 1.51 0 2.25-.45 2.82-1.73l4.77-10.54v12.1h3.08V31.64c0-1.18-.48-1.75-1.46-2.04-2.34-.73-3.9-.1-4.62 1.47l-4.68 10.4-4.53-10.4c-.68-1.57-2.28-2.2-4.62-1.47-.98.3-1.46.86-1.46 2.04v12.07Z"/><path fill="var(--color-b)" d="M41.85 43.72h8.86c1.03 0 2.04-.21 2.84-.59 1.33-.6 1.99-1.43 1.99-2.51v-2.24c0-.88-.74-1.7-2.2-2.25a7.6 7.6 0 0 0-2.63-.46h-3.74c-1.24 0-1.83-.37-1.98-1.2-.03-.1-.03-.17-.03-.27v-1.4c0-.07 0-.15.03-.25.15-.62.47-.8 1.57-.9l.3-.02h8.8V29.6H47c-1.24 0-1.9.08-2.49.25-1.83.57-2.63 1.48-2.63 3.05v1.78c0 1.38 1.57 2.56 4.2 2.83.3.02.6.04.9.04h3.2c.11 0 .23 0 .32.02.98.08 1.4.25 1.69.6a.73.73 0 0 1 .23.56v1.78c0 .22-.14.5-.44.73-.27.23-.71.4-1.3.43l-.33.02h-8.5v2.04Z"/><path fill="var(--color-b)" fill-rule="evenodd" d="M57.5 40.27V33c0-1.85 1.3-2.97 3.9-3.33.27-.04.54-.06.82-.06h5.85c.3 0 .57.02.86.06 2.59.36 3.9 1.48 3.9 3.33v7.27c0 1.5-.56 2.3-1.84 2.83l3.04 2.72h-3.58l-2.46-2.2-2.47.16h-3.3c-.6 0-1.22-.1-1.8-.26-1.97-.53-2.92-1.55-2.92-3.25Zm3.39.14c-.03-.11-.06-.21-.06-.31v-6.92c0-.93.89-1.52 2.25-1.52h4.67c1.18 0 1.98.45 2.16 1.24.03.1.03.2.03.28v6.98c0 .1 0 .2-.03.3-.1.42-.36.76-.78.98l-2.24-2.02h-3.58l2.57 2.31h-2.8c-1.21 0-2.02-.47-2.2-1.32Z" clip-rule="evenodd"/><path fill="var(--color-b)" d="M74.76 40.17c0 2.1 1.57 3.28 4.74 3.51.3.02.6.04.89.04h8.03v-2.04h-8.1c-1.8 0-2.48-.45-2.48-1.53V29.59h-3.08v10.58Z"/><path fill="var(--color-a)" d="M67.05 5.8c-.32 0-.65.04-.97.12v.05h.06c.19.38.52.63.75.96l.54 1.13.05-.06c.34-.23.49-.6.49-1.17-.14-.14-.16-.32-.27-.49-.15-.22-.45-.34-.65-.53Z"/></svg>