<svg xmlns="http://www.w3.org/2000/svg" width="120" height="34" fill="none"><path fill="var(--color-b)" d="M34.18 12.33a1.01 1.01 0 0 1 1.02 0l8.42 4.86c.31.18.5.52.5.88v9.72c0 .36-.19.7-.5.88l-8.42 4.86a1.02 1.02 0 0 1-1.02 0l-8.41-4.86a1.02 1.02 0 0 1-.5-.88v-9.72c0-.36.18-.7.5-.88l8.41-4.86ZM110.27 33.67c-.29 0-.58-.07-.83-.22l-2.65-1.57c-.4-.22-.2-.3-.07-.34.53-.19.63-.23 1.2-.55.05-.03.13-.02.2.02l2.03 1.2a.26.26 0 0 0 .24 0l7.94-4.58a.25.25 0 0 0 .09-.09.25.25 0 0 0 .03-.12v-9.16a.26.26 0 0 0-.12-.22l-7.94-4.58a.26.26 0 0 0-.24 0l-7.93 4.58a.26.26 0 0 0-.13.22v9.16c0 .09.05.17.13.21l2.17 1.26c1.18.59 1.9-.1 1.9-.8v-9.05c0-.13.1-.23.23-.23h1.01c.13 0 .23.1.23.23v9.05c0 1.57-.86 2.47-2.35 2.47-.46 0-.82 0-1.83-.5l-2.08-1.2a1.68 1.68 0 0 1-.83-1.44v-9.16c0-.6.32-1.15.83-1.45l7.94-4.58a1.74 1.74 0 0 1 1.67 0l7.93 4.58c.52.3.83.86.83 1.45v9.16a1.69 1.69 0 0 1-.83 1.45l-7.94 4.58c-.25.15-.54.22-.83.22Z"/><path fill="var(--color-a)" d="M93.93 21.35c.31-.18.5-.51.5-.88v-2.35c0-.36-.19-.7-.5-.88l-8.37-4.85a1.02 1.02 0 0 0-1.02 0l-8.41 4.85a1.02 1.02 0 0 0-.5.88v9.72c0 .36.19.7.5.88l8.37 4.77c.3.17.68.18 1 0l5.05-2.8a.5.5 0 0 0 0-.9l-8.46-4.85a.5.5 0 0 1-.26-.44v-3.05c0-.18.1-.35.26-.44l2.64-1.52a.5.5 0 0 1 .5 0l2.64 1.52a.5.5 0 0 1 .25.44v2.4a.5.5 0 0 0 .77.44l5.04-2.94Z"/><path fill="var(--color-a)" fill-rule="evenodd" d="M63.81.06a.51.51 0 0 0-.76.45v12.91a.36.36 0 0 1-.35.36.36.36 0 0 1-.18-.05l-2.1-1.22a1.02 1.02 0 0 0-1.02 0l-8.42 4.86a1.02 1.02 0 0 0-.5.88v9.72c0 .37.18.7.5.88l8.42 4.86c.31.19.7.19 1.01 0l8.42-4.86a1.02 1.02 0 0 0 .51-.88V3.75c0-.37-.2-.71-.52-.9L63.81.07ZM62.91 25a.25.25 0 0 0 .12-.22v-3.34a.26.26 0 0 0-.13-.22l-2.89-1.67a.25.25 0 0 0-.25 0l-2.9 1.67a.26.26 0 0 0-.12.22v3.34a.26.26 0 0 0 .13.22l2.89 1.66a.25.25 0 0 0 .25 0l2.9-1.66Z" clip-rule="evenodd"/><path fill="var(--color-a)" d="M18.88 17.99c0-.37-.2-.7-.51-.88l-8.42-4.85a.99.99 0 0 0-.46-.13H9.4a1 1 0 0 0-.46.13L.52 17.11a1.02 1.02 0 0 0-.5.88l.01 13.04c0 .18.1.35.25.44a.49.49 0 0 0 .51 0l5-2.87c.32-.18.5-.52.5-.88v-6.09c0-.36.2-.7.52-.88l2.13-1.23a1 1 0 0 1 1.01 0l2.13 1.23c.31.18.5.52.5.88v6.1c0 .35.2.69.52.87l5 2.87a.5.5 0 0 0 .76-.44l.02-13.04Z"/><path fill="var(--color-b)" d="M112.72 27.36c-3.47 0-4.2-1.6-4.2-2.93a.23.23 0 0 1 .23-.23h1.03a.23.23 0 0 1 .23.2c.15 1.04.61 1.57 2.71 1.57 1.67 0 2.39-.38 2.39-1.27 0-.51-.2-.89-2.8-1.14-2.17-.22-3.52-.7-3.52-2.44 0-1.6 1.35-2.55 3.61-2.55 2.55 0 3.8.88 3.96 2.77v.1a.24.24 0 0 1-.06.08.24.24 0 0 1-.16.07h-1.03a.23.23 0 0 1-.23-.18c-.25-1.1-.85-1.45-2.48-1.45-1.82 0-2.03.64-2.03 1.11 0 .58.25.75 2.71 1.07 2.44.33 3.6.78 3.6 2.5 0 1.73-1.44 2.72-3.96 2.72ZM84.93 20.9a.2.2 0 0 1 .2 0l1.61.93c.06.04.1.1.1.17v1.87a.2.2 0 0 1-.1.16l-1.62.94a.2.2 0 0 1-.19 0l-1.61-.94a.2.2 0 0 1-.1-.16V22a.2.2 0 0 1 .1-.17l1.61-.93Z"/></svg>