<svg xmlns="http://www.w3.org/2000/svg" width="43" height="48" fill="none"><path fill="#A07250" fill-rule="evenodd" d="M4.4 43.2.6 0h42.3l-3.8 43.2L21.7 48 4.4 43.2Zm31.4-2.8-14 4v-6l-10.9-3-.7-8.3h5.3l.4 4.3 5.9 1.5v-8.4h-5.9v-1.2l-.3-2.7-.1-1.4h6.3v-5.4H9l-.1-1.2-.3-2.7-.1-1.4h13.3v-5H39l-3.3 37Z" clip-rule="evenodd"/><path fill="#DCA780" d="M21.8 19.2h7l.5-5.4h-7.5v5.4ZM28.3 24.5h-6.5v8.4l5.9-1.5.6-7ZM21.8 13.8V8.5H8.5l.1 1.4.3 2.7v1.2h12.9ZM15.9 31.4l-.4-4.3h-5.3l.7 8.4 10.9 3v-5.6l-6-1.5Z"/><path fill="#DCA780" d="m21.8 44.3 14-3.9L39 3.5H21.8v5H35v1.4l-1.4 14.6-.9 10v1l-11 3v5.8Z"/><path fill="#E3C4AD" d="M28.8 19.2h-7v5.3h11.8L35 9.9l.1-1.4H21.8v5.3h7.5l-.5 5.4ZM27.7 31.4l-6 1.5v5.6l11-3v-1l1-10h-5.4l-.6 6.9Z"/><path fill="#DCA780" d="M21.8 24.5v-5.3h-6.3v1.4l.3 2.7.1 1.2h5.9Z"/></svg>