<svg width="43" height="48" viewBox="0 0 43 48" fill="none" xmlns="http://www.w3.org/2000/svg">
<path fill-rule="evenodd" clip-rule="evenodd" d="M4.44924 43.2015L0.597351 0H42.9206L39.0654 43.1944L21.7331 48L4.44924 43.2015ZM35.7644 40.4442L21.7597 44.327V38.4623L10.9138 35.4515L10.1712 27.1321H15.4893L15.867 31.358L21.7597 32.9494L21.7592 24.4823V24.4833H15.9331L15.827 23.2926L15.5854 20.6062L15.4583 19.1847L21.7592 19.1843V13.7587L8.97952 13.7582L8.87295 12.5675L8.63177 9.88162L8.50475 8.46016H21.7592L21.7597 3.5327H39.0592L35.7644 40.4442Z" fill="#A07250"/>
<path d="M21.7592 19.1843H28.7704L29.2551 13.7587L21.7597 13.7582L21.7592 13.7587V19.1843Z" fill="#DCA780"/>
<path d="M28.3002 24.4823H21.7592L21.7597 32.9494L21.7678 32.9516L21.7726 32.9502V32.9492L27.6819 31.3541L28.3002 24.4823Z" fill="#DCA780"/>
<path d="M21.7592 13.7587V8.46016H8.50475L8.63177 9.88162L8.87295 12.5675L8.97952 13.7582L21.7592 13.7587Z" fill="#DCA780"/>
<path d="M15.867 31.358L15.4893 27.1321H10.1712L10.9138 35.4515L21.7597 38.4623V32.9494L15.867 31.358Z" fill="#DCA780"/>
<path d="M21.7597 44.327L35.7644 40.4442L39.0592 3.5327H21.7597L21.7592 8.46016H21.7778H35.0456L34.9186 9.88162L33.6165 24.4823L32.7146 34.5562L32.6347 35.4515L21.7916 38.4565V38.4571L21.7668 38.4643L21.7597 38.4623V44.327Z" fill="#DCA780"/>
<path d="M28.7704 19.1843H21.7592V24.4823H28.3002H33.6165L34.9186 9.88162L35.0456 8.46016H21.7778V13.7582H21.7597L21.7592 13.7587H29.2551L28.7704 19.1843Z" fill="#E3C4AD"/>
<path d="M27.6819 31.3541L21.7726 32.9492V32.9502L21.7911 32.9449L21.7916 38.4565L32.6347 35.4515L32.7146 34.5562L33.6165 24.4823H28.3002L27.6819 31.3541Z" fill="#E3C4AD"/>
<path d="M21.7592 24.4823V19.1843L15.4583 19.1847L15.5854 20.6062L15.827 23.2926L15.9331 24.4833H21.7592V24.4823Z" fill="#DCA780"/>
</svg>
