<svg width="110" height="26" viewBox="0 0 110 26" fill="none" xmlns="http://www.w3.org/2000/svg">
<path d="M34.5058 25V1.47082H35.7884V5.17224C35.9399 5.00827 36.0799 4.83408 36.2072 4.65091C36.7314 3.56752 37.5547 2.65536 38.5809 2.02133C39.607 1.38731 40.7934 1.0577 42.0009 1.07114C44.924 0.984249 47.2973 2.06166 48.6934 4.65091C49.5817 6.25939 50.0705 8.0562 50.1191 9.89123C50.1677 11.7263 49.7746 13.5462 48.9726 15.1991C47.6725 18.1011 44.4615 19.5435 41.0237 19.0134C39.9539 18.9227 38.9239 18.5667 38.0277 17.9778C37.1315 17.3889 36.3977 16.586 35.8931 15.6422V25H34.5058ZM35.7884 9.79466C35.9019 10.9416 35.9455 11.7583 36.0764 12.5577C36.5824 15.703 38.4497 17.5711 41.3814 17.91C42.758 18.1353 44.1705 17.8783 45.3781 17.1827C46.5857 16.4872 47.5138 15.3962 48.0041 14.0956C48.5675 12.7578 48.8386 11.316 48.7995 9.86593C48.7604 8.41582 48.4119 6.99058 47.7772 5.68487C47.2539 4.51918 46.3638 3.55472 45.2415 2.93714C44.1192 2.31956 42.8256 2.08241 41.556 2.2615C40.3639 2.3475 39.2285 2.80122 38.3074 3.55958C37.3863 4.31794 36.7255 5.34324 36.4167 6.49293C36.1434 7.5805 35.9336 8.68292 35.7884 9.79466ZM76.2833 12.9921C76.089 14.6487 75.297 16.1787 74.0548 17.2975C72.8125 18.4162 71.2045 19.0476 69.5298 19.0743C64.1549 19.3436 61.6332 15.7899 61.2319 11.6888C60.9533 9.4617 61.3164 7.20161 62.2789 5.17224C62.9492 3.78021 64.047 2.63669 65.4133 1.90721C66.7796 1.17772 68.3435 0.900122 69.8788 1.11458C71.3384 1.23777 72.7221 1.81507 73.8339 2.76473C74.9457 3.7144 75.7294 4.9883 76.0739 6.40604C76.347 7.69727 76.548 9.00259 76.6759 10.316H62.5494C62.2877 14.0348 64.2945 17.0237 67.139 17.7449C70.6815 18.6138 73.7093 17.0845 74.8087 13.7307C75.053 12.8705 75.498 12.7488 76.2833 12.9921ZM62.5494 9.12562H75.1752C75.0966 5.16355 72.6186 2.29625 69.2593 2.25281C65.455 2.19199 62.7152 4.95502 62.5494 9.12562ZM78.8835 13.079H80.1225C80.1683 13.9869 80.4645 14.8646 80.9787 15.6157C81.4928 16.3668 82.2049 16.9622 83.0368 17.3365C84.0814 17.8046 85.2186 18.0321 86.3637 18.002C87.5088 17.9719 88.6323 17.685 89.6507 17.1627C90.2057 16.9136 90.6705 16.5009 90.9826 15.9805C91.2947 15.46 91.4389 14.8567 91.3958 14.252C91.4277 13.6688 91.2678 13.0912 90.9403 12.6067C90.6128 12.1221 90.1355 11.7572 89.5809 11.5672C88.2197 11.0632 86.7713 10.7852 85.384 10.3421C83.9405 9.93271 82.529 9.4187 81.1608 8.80414C78.9271 7.71804 78.7875 3.48662 81.3179 2.14855C82.6136 1.42046 84.0717 1.02708 85.5593 1.00432C87.0468 0.981551 88.5164 1.33012 89.8339 2.01821C90.6321 2.45745 91.2768 3.12853 91.6821 3.94197C92.0874 4.75541 92.2341 5.67255 92.1026 6.57113H91.0381C91.0381 6.51899 90.9421 6.47555 90.9421 6.42342C90.8112 3.04349 87.9667 2.00083 84.9128 2.29625C84.0011 2.40823 83.1156 2.6757 82.2951 3.08693C81.8022 3.31141 81.3914 3.68274 81.1195 4.14965C80.8475 4.61656 80.7278 5.15602 80.7769 5.69356C80.7784 6.23135 80.947 6.7555 81.2594 7.19417C81.5718 7.63283 82.0128 7.96453 82.522 8.14379C83.8657 8.63036 85.2705 8.94316 86.6491 9.32546C87.7573 9.62957 88.909 9.82941 89.9823 10.1943C90.7398 10.4416 91.404 10.9121 91.887 11.5436C92.37 12.1751 92.6491 12.9378 92.6872 13.7307C92.8167 14.5994 92.668 15.4867 92.2624 16.2666C91.8567 17.0464 91.2146 17.6792 90.4273 18.0751C87.513 19.7172 82.714 19.2828 80.5762 17.2062C80.0344 16.6636 79.6059 16.0195 79.3154 15.3112C79.0249 14.6028 78.8781 13.8442 78.8835 13.079ZM108.393 6.57113H107.233C107.233 6.41473 107.171 6.27571 107.154 6.14538C107.135 5.27916 106.818 4.44568 106.256 3.7845C105.693 3.12333 104.92 2.6746 104.065 2.51347C102.452 2.05261 100.731 2.13507 99.1702 2.74807C98.5531 2.92426 98.0098 3.29445 97.6214 3.80339C97.233 4.31232 97.0202 4.9327 97.015 5.57192C96.9933 6.19968 97.1898 6.81567 97.5713 7.31589C97.9528 7.8161 98.496 8.16991 99.1091 8.31757C100.854 8.85627 102.643 9.18645 104.414 9.67302C104.988 9.8102 105.553 9.98139 106.107 10.1857C106.933 10.4801 107.652 11.016 108.167 11.7233C108.683 12.4306 108.973 13.2764 108.998 14.1502C109.024 15.0239 108.784 15.885 108.31 16.6209C107.836 17.3568 107.151 17.9332 106.343 18.2749C105.111 18.8317 103.777 19.1262 102.424 19.1397C101.072 19.1532 99.7319 18.8852 98.4896 18.3531C97.468 17.9143 96.6059 17.1745 96.0194 16.2331C95.4328 15.2917 95.15 14.194 95.2088 13.0877H96.3431C96.553 14.0958 97.0064 15.0379 97.6643 15.8322C98.3221 16.6265 99.1644 17.2491 100.118 17.6462C101.072 18.0433 102.109 18.2028 103.139 18.111C104.169 18.0192 105.16 17.6788 106.028 17.1193C106.557 16.8458 106.996 16.427 107.293 15.9126C107.59 15.3982 107.732 14.8099 107.704 14.2172C107.73 13.6337 107.564 13.0576 107.232 12.5762C106.9 12.0948 106.419 11.7345 105.863 11.5498C104.501 11.0458 103.053 10.7765 101.666 10.3334C100.214 9.93034 98.7937 9.42214 97.4164 8.81283C95.235 7.74411 95.0605 3.54744 97.5472 2.20937C98.859 1.45078 100.346 1.04328 101.862 1.02653C103.379 1.00978 104.875 1.38435 106.203 2.11379C106.963 2.56538 107.574 3.22713 107.963 4.01849C108.352 4.80986 108.501 5.69672 108.393 6.57113ZM32.3855 18.6485C31.9286 18.8208 31.4243 18.8204 30.9677 18.6475C30.5111 18.4746 30.1339 18.1411 29.9075 17.7101C28.4852 15.5901 26.9146 13.5656 25.4051 11.4977L24.7507 10.6288C22.9533 13.0269 21.1558 15.3294 19.5154 17.7188C19.3017 18.1307 18.9449 18.4513 18.5115 18.6207C18.0781 18.7901 17.5976 18.7969 17.1596 18.6398L23.9043 9.62957L17.6307 1.4882C18.0823 1.32582 18.5764 1.3236 19.0294 1.48189C19.4825 1.64019 19.8668 1.94931 20.1175 2.35707C21.5746 4.47713 23.1889 6.50162 24.7943 8.64774C26.4085 6.51899 28.0053 4.48582 29.4974 2.38314C29.7123 1.97791 30.0692 1.66547 30.5004 1.50527C30.9316 1.34506 31.4068 1.34826 31.8358 1.51427L29.4014 4.72911C28.3107 6.16276 27.2375 7.60509 26.1032 9.00398C26.0118 9.08548 25.9386 9.18525 25.8886 9.29679C25.8385 9.40833 25.8127 9.52912 25.8127 9.65129C25.8127 9.77346 25.8385 9.89426 25.8886 10.0058C25.9386 10.1173 26.0118 10.2171 26.1032 10.2986C28.1885 13.0529 30.2565 15.816 32.3855 18.6485ZM61.0225 1.40131V2.61774C60.14 2.5601 59.2551 2.68737 58.4251 2.99133C57.595 3.29529 56.8382 3.76918 56.2034 4.38243C55.5687 4.99568 55.0701 5.73465 54.7399 6.55164C54.4097 7.36863 54.2552 8.24549 54.2864 9.12562V18.6833H53.0387V1.47082H54.2602V4.99846C55.7697 2.42658 58.0994 1.47082 61.0225 1.40131ZM1 9.51662C1.18323 8.64774 1.29667 7.70067 1.5497 6.81441C3.05921 1.47082 9.21066 -0.753501 13.4425 2.55692C15.9205 4.49451 16.54 7.24016 16.4179 10.3334H2.45715C2.23029 15.8594 6.23528 19.1959 11.3571 17.4929C12.188 17.197 12.9317 16.6997 13.5212 16.0459C14.1108 15.3921 14.5275 14.6024 14.7339 13.748C15.0044 12.8792 15.4406 12.7315 16.2696 12.9834C16.133 14.0412 15.7574 15.0544 15.1711 15.9468C14.5847 16.8393 13.8028 17.5877 12.8841 18.1359C11.3662 18.9624 9.62473 19.2899 7.90868 19.0714C6.19264 18.8529 4.58992 18.0997 3.3297 16.9194C2.08297 15.5235 1.32913 13.7598 1.18323 11.8973C1.18323 11.6019 1.0698 11.3065 1.00873 11.0285C1.00291 10.5129 1 10.009 1 9.51662ZM2.4746 9.143H15.1003C15.0218 5.13748 12.4827 2.29625 9.09723 2.27019C5.32783 2.21806 2.63166 4.99846 2.46588 9.12562L2.4746 9.143Z" fill="#A07250" stroke="#A07250"/>
</svg>
