<svg xmlns="http://www.w3.org/2000/svg" width="110" height="26" fill="none"><path fill="#A07250" stroke="#A07250" d="M34.5 25V1.5h1.3v3.7l.4-.5A6.3 6.3 0 0 1 42 1c3-.1 5.3 1 6.7 3.6a11.5 11.5 0 0 1 .3 10.5c-1.3 2.9-4.5 4.3-8 3.8a6.4 6.4 0 0 1-5.1-3.4V25h-1.4Zm1.3-15.2c.1 1.1.1 2 .3 2.8.5 3.1 2.3 5 5.3 5.3a6 6 0 0 0 6.6-3.8 10.2 10.2 0 0 0-.2-8.4 5.9 5.9 0 0 0-6.2-3.4 5.8 5.8 0 0 0-5.2 4.2 29 29 0 0 0-.6 3.3ZM76.3 13a6.9 6.9 0 0 1-6.8 6c-5.3.3-7.9-3.2-8.3-7.3-.2-2.2.1-4.5 1-6.5a7.3 7.3 0 0 1 7.7-4A7 7 0 0 1 76 6.3l.6 4H62.5c-.2 3.6 1.8 6.6 4.6 7.3 3.6 1 6.6-.6 7.7-4 .3-.8.7-1 1.5-.7ZM62.5 9h12.7c-.1-4-2.6-6.8-6-6.8-3.7-.1-6.5 2.7-6.7 6.8Zm16.4 4H80a5 5 0 0 0 3 4.2 7.6 7.6 0 0 0 6.6-.1 3 3 0 0 0 1.7-3 2.7 2.7 0 0 0-1.8-2.6l-4.2-1.3c-1.5-.4-2.9-.9-4.2-1.5-2.3-1-2.4-5.3.1-6.7a9 9 0 0 1 8.5 0 4.5 4.5 0 0 1 2.3 4.5h-1l-.2-.2C91 3 88 2 85 2.3a8 8 0 0 0-2.6.8 2.6 2.6 0 0 0-1.5 2.6A2.6 2.6 0 0 0 82.5 8l4.1 1.2c1.2.3 2.3.5 3.4.9a4 4 0 0 1 2.7 3.5 4.2 4.2 0 0 1-2.3 4.4c-2.9 1.6-7.7 1.2-9.8-.9a5.8 5.8 0 0 1-1.7-4.1Zm29.5-6.5h-1.2V6a3.8 3.8 0 0 0-3.1-3.6 7.6 7.6 0 0 0-5 .2 3 3 0 0 0-2 2.9 2.7 2.7 0 0 0 2 2.7c1.8.6 3.5.9 5.3 1.4l1.7.5a4.4 4.4 0 0 1 2.2 6.4c-.5.8-1.1 1.3-2 1.7a9.7 9.7 0 0 1-7.8 0 5.4 5.4 0 0 1-3.3-5.2h1.1a6.3 6.3 0 0 0 6.8 5c1 0 2-.4 3-1a3.1 3.1 0 0 0 1.6-2.9 2.7 2.7 0 0 0-1.8-2.7l-4.2-1.2a31 31 0 0 1-4.3-1.5c-2.2-1-2.3-5.3.1-6.6a8.8 8.8 0 0 1 8.7 0 4.6 4.6 0 0 1 2.2 4.4Zm-76 12a2 2 0 0 1-2.5-.9c-1.4-2.1-3-4.1-4.5-6.2l-.6-.9-5.3 7.1a2 2 0 0 1-2.3 1l6.7-9-6.3-8.2a2 2 0 0 1 2.5.9l4.7 6.2 4.7-6.2a1.9 1.9 0 0 1 2.3-.9l-2.4 3.2c-1 1.5-2.2 3-3.3 4.3a.9.9 0 0 0 0 1.3l6.3 8.3ZM61 1.4v1.2a6.4 6.4 0 0 0-6.7 6.5v9.6H53V1.5h1.3V5C55.8 2.4 58 1.5 61 1.4ZM1 9.5l.5-2.7c1.6-5.3 7.7-7.6 12-4.2 2.4 1.9 3 4.6 3 7.7h-14c-.3 5.6 3.7 8.9 8.9 7.2a5.3 5.3 0 0 0 3.3-3.8c.3-.8.7-1 1.6-.7a7 7 0 0 1-3.4 5.1A8.2 8.2 0 0 1 3.3 17a8.5 8.5 0 0 1-2.1-5L1 11V9.5Zm1.5-.4H15c0-4-2.6-6.8-6-6.8C5.3 2.3 2.6 5 2.5 9Z"/></svg>