<svg width="33" height="48" viewBox="0 0 33 48" fill="none" xmlns="http://www.w3.org/2000/svg">
<path d="M8.31826 15.9999H16.405V0H8.31194C6.16663 0.00165676 4.10977 0.845287 2.5934 2.3454C1.07704 3.84551 0.22525 5.87941 0.22525 8.00006C0.22525 10.1218 1.07791 12.1566 2.59565 13.6569C4.11338 15.1572 6.17186 15.9999 8.31826 15.9999Z" fill="#A07250"/>
<path d="M8.31826 32.0001H16.4113V24V15.9999H16.405H8.31826C6.17186 15.9999 4.11338 16.8428 2.59565 18.3431C1.07791 19.8434 0.22525 21.8783 0.22525 24C0.22525 26.1217 1.07791 28.1566 2.59565 29.6569C4.11338 31.1572 6.17186 32.0001 8.31826 32.0001Z" fill="#DCA780"/>
<path d="M8.31826 48C10.4647 48 12.5232 47.1573 14.0409 45.657C15.5586 44.1567 16.4113 42.1219 16.4113 40.0001V32.0001H8.31826C6.17186 32.0001 4.11338 32.843 2.59565 34.3433C1.07791 35.8436 0.22525 37.8784 0.22525 40.0001C0.22525 42.1219 1.07791 44.1567 2.59565 45.657C4.11338 47.1573 6.17186 48 8.31826 48Z" fill="#E3C4AD"/>
<path d="M24.5043 0H16.4113V15.9999H24.5043C26.6507 15.9999 28.7092 15.1572 30.2269 13.6569C31.7447 12.1566 32.5973 10.1218 32.5973 8.00006C32.5973 5.87833 31.7447 3.84349 30.2269 2.3432C28.7092 0.84291 26.6507 0 24.5043 0Z" fill="#DCA780"/>
<path d="M30.2269 29.6569C31.7447 28.1566 32.5973 26.1217 32.5973 24C32.5973 21.8783 31.7447 19.8434 30.2269 18.3431C28.7092 16.8428 26.6507 15.9999 24.5043 15.9999C22.3579 15.9999 20.2994 16.8428 18.7817 18.3431C17.264 19.8434 16.4113 21.8783 16.4113 24C16.4113 26.1217 17.264 28.1566 18.7817 29.6569C20.2994 31.1572 22.3579 31.9999 24.5043 31.9999C26.6507 31.9999 28.7092 31.1572 30.2269 29.6569Z" fill="#E3C4AD"/>
</svg>
