<svg width="37" height="48" viewBox="0 0 37 48" fill="none" xmlns="http://www.w3.org/2000/svg">
<path d="M14.0313 12.8098L0.0159988 38.493L18.2324 20.9659L14.0313 12.8098Z" fill="#A07250"/>
<path d="M16.4275 7.63957L14.0313 12.8098L18.2324 20.9659L23.1057 16.277L18.6305 7.63957C18.0228 6.60192 17.0507 6.58992 16.4275 7.63957Z" fill="#DCA780"/>
<path d="M7.79632 0.705871C7.17936 -0.325781 6.48761 -0.213331 6.25703 0.956275L0.0149519 38.492L14.0313 12.8098L7.79632 0.705871Z" fill="#DCA780"/>
<path d="M31.1581 11.1258C30.9228 9.95772 30.0005 9.67582 29.1093 10.5005L23.1057 16.277L18.2324 20.9659L0.0159988 38.493L0.014563 38.4944L0.0126953 38.4962L15.985 47.5501C16.5038 47.844 17.8655 48 17.8655 48C17.8655 48 19.3611 47.871 19.922 47.5711L36.0127 38.2743L31.1581 11.1258Z" fill="#E3C4AD"/>
</svg>
