<svg width="49" height="48" viewBox="0 0 49 48" fill="none" xmlns="http://www.w3.org/2000/svg">
<path d="M47.2366 21.8699L26.281 0.906006C25.9941 0.618807 25.6534 0.39079 25.2784 0.235352C24.9034 0.0799128 24.5015 0 24.0956 0C23.6897 0 23.2878 0.0799128 22.9128 0.235352C22.5378 0.39079 22.1972 0.618807 21.9102 0.906006L17.5604 5.25757L23.0801 10.7795C24.3641 10.3294 25.834 10.637 26.857 11.6604C27.3439 12.1484 27.6839 12.7634 27.838 13.4355C27.9921 14.1076 27.9541 14.8096 27.7285 15.4612L33.0487 20.7837C34.3356 20.3395 35.8206 20.6261 36.848 21.657C37.1896 21.9988 37.4605 22.4045 37.6453 22.8511C37.8301 23.2976 37.9252 23.776 37.9251 24.2593C37.9251 24.7426 37.8298 25.2212 37.6449 25.6677C37.46 26.1142 37.1889 26.5199 36.8473 26.8616C36.5056 27.2033 36.1 27.4743 35.6537 27.6592C35.2073 27.8441 34.7289 27.939 34.2458 27.939C33.7628 27.9389 33.2844 27.8437 32.8381 27.6587C32.3918 27.4737 31.9863 27.2026 31.6448 26.8608C30.5648 25.7804 30.2978 24.1899 30.8438 22.8589L25.882 17.895V30.9573C26.2422 31.1356 26.5714 31.3707 26.857 31.6536C27.1985 31.9953 27.4695 32.401 27.6543 32.8474C27.8392 33.2939 27.9343 33.7721 27.9343 34.2554C27.9343 34.7386 27.8392 35.2171 27.6543 35.6636C27.4695 36.11 27.1985 36.5157 26.857 36.8574C26.5154 37.1991 26.11 37.4701 25.6637 37.655C25.2174 37.84 24.7391 37.9351 24.2561 37.9351C23.7731 37.9351 23.2948 37.84 22.8485 37.655C22.4023 37.4701 21.9968 37.1991 21.6552 36.8574C21.3133 36.516 21.042 36.1103 20.8569 35.6638C20.6718 35.2173 20.5765 34.7387 20.5765 34.2554C20.5765 33.772 20.6718 33.2934 20.8569 32.8469C21.042 32.4005 21.3133 31.995 21.6552 31.6536C22.0107 31.2994 22.4052 31.0309 22.8596 30.8508V17.667C22.4217 17.4869 22.0107 17.2214 21.6552 16.8643C21.1387 16.3482 20.7876 15.6899 20.6465 14.9734C20.5055 14.2569 20.5809 13.5147 20.8633 12.8413L15.4185 7.39722L1.04913 21.7573C0.761827 22.0444 0.533926 22.3855 0.378418 22.7607C0.22291 23.136 0.142853 23.5383 0.142853 23.9446C0.142853 24.3508 0.22291 24.7529 0.378418 25.1282C0.533926 25.5034 0.761827 25.8445 1.04913 26.1316L22.0062 47.094C22.2931 47.3812 22.6338 47.6092 23.0088 47.7646C23.3838 47.9201 23.7857 48 24.1916 48C24.5975 48 24.9994 47.9201 25.3744 47.7646C25.7494 47.6092 26.0901 47.3812 26.377 47.094L47.2366 26.259C47.5239 25.9719 47.7518 25.6311 47.9073 25.2559C48.0628 24.8806 48.1429 24.4783 48.1429 24.072C48.1429 23.6658 48.0628 23.2635 47.9073 22.8882C47.7518 22.5129 47.5239 22.1721 47.2366 21.885" fill="#A07250"/>
</svg>
