<svg width="43" height="48" viewBox="0 0 43 48" fill="none" xmlns="http://www.w3.org/2000/svg">
<path d="M21.4815 33.3208L21.4762 33.3223L15.4814 31.7284L15.0981 27.5031H9.69399L10.4481 35.8226L21.4752 38.8358L21.5 38.8286L21.4815 38.8329V33.3208Z" fill="#DCA780"/>
<path d="M21.5 19.5558V24.8539H28.1102L27.4855 31.7255L21.5 33.316V38.8286L32.5174 35.8226L32.5981 34.927L33.8632 20.9781L33.9945 19.5558H32.5436H21.5Z" fill="#E3C4AD"/>
<path d="M21.4815 19.5558H14.3765L13.8851 14.1294H21.4815V8.83086H8.00177L8.1302 10.2527L9.45362 24.8539H21.4815V19.5558Z" fill="#DCA780"/>
<path d="M21.5 8.83086V14.1294H34.4845L34.592 12.9383L34.8377 10.2527L34.9666 8.83086H21.5Z" fill="#E3C4AD"/>
<path fill-rule="evenodd" clip-rule="evenodd" d="M3.91331 43.2019L0 0H43L39.0828 43.1952L21.4737 48L3.91331 43.2019ZM35.7286 40.4444L21.5 44.3274V38.8286L21.4752 38.8358L10.4481 35.8226L9.69399 27.5031H15.0981L15.4814 31.7284L21.4762 33.3223L21.4815 33.3208L21.5 33.316V24.8539H21.4815H9.45362L8.1302 10.2527L8.00177 8.83086H21.4815H21.5V3.53281H39.0765L35.7286 40.4444Z" fill="#A07250"/>
<path d="M21.5 44.3274L35.7286 40.4444L39.0765 3.53281H21.5V8.83086H34.9666L34.8377 10.2527L34.592 12.9383L34.4845 14.1294H21.5V19.5558H32.5436H33.9945L33.8632 20.9781L32.5981 34.927L32.5174 35.8226L21.5 38.8286V44.3274Z" fill="#DCA780"/>
<path d="M21.4815 19.5558H21.5V14.1294H21.4815H13.8851L14.3765 19.5558H21.4815Z" fill="#A07250"/>
<path d="M28.1102 24.8539H21.5V33.316L27.4855 31.7255L28.1102 24.8539Z" fill="#DCA780"/>
</svg>
