<svg xmlns="http://www.w3.org/2000/svg" width="48" height="48" fill="none"><path fill="#A07250" fill-rule="evenodd" d="M24 12a12 12 0 1 0 0 24 12 12 0 0 0 0-24Zm-7.5 12a7.51 7.51 0 0 0 15 0 7.5 7.5 0 0 0-15 0Z" clip-rule="evenodd"/><path fill="#A07250" d="M38.5 11.1a1.6 1.6 0 1 1-3.2 0 1.6 1.6 0 0 1 3.2 0Z"/><path fill="#A07250" fill-rule="evenodd" d="M33 0H15A15 15 0 0 0 0 15v18a15 15 0 0 0 15 15h18a15 15 0 0 0 15-15V15A15 15 0 0 0 33 0Zm0 43.5c5.79 0 10.5-4.71 10.5-10.5V15c0-5.79-4.71-10.5-10.5-10.5H15C9.21 4.5 4.5 9.21 4.5 15v18c0 5.79 4.71 10.5 10.5 10.5h18Z" clip-rule="evenodd"/><path fill="#E3C4AD" fill-rule="evenodd" d="M43.5 33c0 5.79-4.71 10.5-10.5 10.5H15C9.21 43.5 4.5 38.79 4.5 33V15C4.5 9.21 9.21 4.5 15 4.5h18c5.79 0 10.5 4.71 10.5 10.5v18ZM12 24a12 12 0 1 1 24 0 12 12 0 0 1-24 0Zm24.9-11.3a1.6 1.6 0 1 0 0-3.2 1.6 1.6 0 0 0 0 3.2Z" clip-rule="evenodd"/><path fill="#E3C4AD" d="M24 31.5a7.51 7.51 0 0 1 0-15 7.5 7.5 0 0 1 0 15Z"/></svg>