<svg xmlns="http://www.w3.org/2000/svg" width="48" height="48" fill="none"><path fill="#A07250" d="M44.11 36.55c-.34-2.19-1.74-4.03-5.88-5.74-1.44-.68-3.04-1.16-3.52-2.27-.17-.65-.2-1.02-.09-1.41.31-1.27 1.8-1.67 2.98-1.3a3.3 3.3 0 0 1 1.91 1.8l3.44-2.25c-.52-.82-.8-1.2-1.13-1.55-1.22-1.39-2.88-2.1-5.54-2.05l-1.39.18a6.26 6.26 0 0 0-3.33 2c-2.22 2.59-1.59 7.1 1.12 8.96 2.66 2.04 6.58 2.5 7.08 4.42.49 2.34-1.68 3.1-3.84 2.83-1.59-.34-2.47-1.17-3.43-2.67l-3.53 2.08-.04.02c.43.96.88 1.4 1.6 2.23 3.4 3.52 11.92 3.35 13.45-1.99.06-.18.48-1.4.14-3.29ZM26.51 22.06h-4.4l-.01 11.6c0 2.48.12 4.74-.27 5.43-.64 1.37-2.31 1.2-3.07.93-.77-.38-1.17-.94-1.62-1.72-.13-.22-.22-.4-.25-.4l-3.58 2.23a7.17 7.17 0 0 0 2.6 3.03 8.38 8.38 0 0 0 6.28.79 5.57 5.57 0 0 0 3.54-2.84c1-1.88.79-4.17.78-6.69.02-4.11 0-8.23 0-12.36Z"/><path fill="#E3C4AD" fill-rule="evenodd" d="M.96 0h47v48h-47V0Zm37.27 30.8c4.14 1.72 5.54 3.56 5.88 5.75a6.74 6.74 0 0 1-.14 3.3c-1.53 5.33-10.05 5.5-13.45 1.98-.72-.83-1.17-1.27-1.6-2.23l.04-.02 3.53-2.08c.96 1.5 1.84 2.33 3.43 2.67 2.16.27 4.33-.5 3.84-2.83-.5-1.91-4.42-2.38-7.08-4.42-2.71-1.86-3.34-6.37-1.12-8.95.74-.96 2-1.67 3.33-2l1.39-.2c2.66-.05 4.32.67 5.54 2.06.34.35.61.73 1.13 1.55l-3.44 2.26a3.3 3.3 0 0 0-1.91-1.81c-1.18-.37-2.67.03-2.98 1.3-.1.4-.08.76.09 1.4.48 1.12 2.08 1.6 3.52 2.28Zm-16.11-8.74h4.4v12.36c0 2.52.21 4.8-.79 6.69a5.57 5.57 0 0 1-3.54 2.84c-2.36.55-4.61.24-6.28-.8-1.13-.7-2-1.78-2.6-3.02l3.58-2.24c.03.02.12.19.25.41.45.78.85 1.34 1.62 1.72.76.27 2.43.44 3.07-.93.4-.69.27-2.95.27-5.42l.02-11.6Z" clip-rule="evenodd"/></svg>