<svg width="42" height="48" viewBox="0 0 42 48" fill="none" xmlns="http://www.w3.org/2000/svg">
<path d="M34.9282 34.3521C35.4571 34.3521 36.5149 33.9555 36.5149 33.9555C36.5319 33.9046 36.5532 33.8429 36.5775 33.773C36.3109 33.7178 36.0695 33.8232 35.986 33.8232C35.6716 33.893 35.2466 34.0735 34.7571 34.2624C34.7502 34.2705 34.7433 34.279 34.7364 34.2878C34.8409 34.3285 34.9096 34.3521 34.9282 34.3521Z" fill="#A07250"/>
<path d="M12.8464 20.6032L14.9621 16.6373L14.8702 14.5263C14.7603 14.3244 14.6976 14.1052 14.6976 13.861C14.6976 13.0678 15.2265 12.8036 16.0198 12.1426L16.0391 12.124C15.4786 11.6884 15.0942 10.7946 15.0942 9.76266C15.0942 8.30242 15.8638 7.11867 16.8132 7.11867C17.7625 7.11867 18.5321 8.30242 18.5321 9.76266C18.5321 10.1198 18.4861 10.4603 18.4027 10.7711C18.619 10.7188 18.84 10.6883 19.061 10.6883C19.612 10.6883 20.201 10.8211 20.756 11.0004C20.6022 10.5888 20.5156 10.1234 20.5156 9.63065C20.5156 7.95138 21.5219 6.59001 22.7634 6.59001C24.0048 6.59001 25.0112 7.95138 25.0112 9.63065C25.0112 10.6847 24.6147 11.6136 24.0124 12.1591C24.6781 12.3712 25.1707 12.6698 25.1531 13.2235L25.8046 13.2L28.0524 18.6203L35.986 28.2705L34.0367 33.4429C34.3461 33.5829 34.5706 33.7692 34.6637 33.9555C34.6637 34.0877 34.796 34.2198 34.796 34.2198C34.7831 34.2328 34.7701 34.247 34.7571 34.2624C35.2466 34.0735 35.6716 33.893 35.986 33.8232C36.0695 33.8232 36.3109 33.7178 36.5775 33.773C36.7424 33.2984 37.0439 32.4502 37.0439 32.1045C37.9695 29.0639 35.7216 24.1728 33.6059 21.1322C31.4903 18.0917 29.7714 16.2407 28.8458 12.407C27.9202 8.57319 29.1102 9.63065 28.3169 6.32567C27.9202 4.60708 27.2591 3.41742 26.598 2.49203C25.8046 1.56663 24.879 1.0379 24.3501 0.905701C23.1601 0.244705 20.3833 -0.813082 16.9454 1.03771C13.3753 2.88849 13.772 6.85447 14.4331 14.9186C14.4331 15.4474 14.3009 16.1085 14.0365 16.6373C13.5075 17.8271 12.5819 18.8848 11.7886 19.8102C10.863 21.1322 9.93747 22.454 9.27633 23.9082C7.68962 26.9488 6.23513 30.7826 6.63181 32.2368C6.64997 32.2332 6.67391 32.2392 6.70331 32.2544C6.97472 32.0787 7.27905 31.9725 7.6896 31.9725C8.05125 31.9725 8.49018 32.2661 8.94297 32.7053L8.87959 32.5012L9.06216 31.0043C8.95334 30.4936 8.92336 29.9041 9.01186 29.1962C9.14409 27.742 9.673 26.5522 10.3341 25.2302C10.5986 24.7014 11.2597 23.6439 11.2597 23.6439C11.2597 23.6439 11.2179 23.7472 11.1487 23.9299L12.8464 20.6032Z" fill="#A07250"/>
<path d="M22.7634 6.59001C21.5219 6.59001 20.5156 7.95138 20.5156 9.63065C20.5156 10.1234 20.6022 10.5888 20.756 11.0004C21.0771 11.1042 21.3869 11.2235 21.6714 11.3418C21.4467 11.0337 21.3089 10.6176 21.3089 10.1596C21.3089 9.21049 21.9009 8.44099 22.6312 8.44099C23.3614 8.44099 23.9534 9.21049 23.9534 10.1596C23.9534 11.0152 23.4725 11.7247 22.8428 11.8564C22.8611 11.864 22.8787 11.8712 22.8956 11.878C23.2831 11.9641 23.6706 12.0502 24.0124 12.1591C24.6147 11.6136 25.0112 10.6847 25.0112 9.63065C25.0112 7.95138 24.0048 6.59001 22.7634 6.59001Z" fill="#E3C4AD"/>
<path d="M16.8132 7.11867C15.8638 7.11867 15.0942 8.30242 15.0942 9.76266C15.0942 10.7946 15.4786 11.6884 16.0391 12.124C16.1207 12.0463 16.37 11.8241 16.7238 11.5769C16.3454 11.3995 16.0226 10.8537 15.937 10.1761C15.8271 9.30688 16.1491 8.55026 16.6562 8.48617C17.1633 8.42208 17.6636 9.07483 17.7735 9.94404C17.8248 10.3502 17.7819 10.7317 17.6698 11.0294C17.9028 10.923 18.1495 10.8322 18.4027 10.7711C18.4861 10.4603 18.5321 10.1198 18.5321 9.76266C18.5321 8.30242 17.7625 7.11867 16.8132 7.11867Z" fill="#E3C4AD"/>
<path d="M14.6976 40.1688C16.2843 42.1518 19.59 42.8127 21.5734 42.4161C23.6529 42.0492 25.8457 40.8903 27.2093 39.7768C27.2263 39.6463 27.243 39.5126 27.2591 39.3755C27.3913 38.4501 27.3913 37.2604 27.3913 36.2028C27.3913 34.8808 27.3913 34.4843 27.6558 33.9555C27.9202 33.4267 28.1847 33.1622 28.8458 33.1622C29.507 33.1622 29.9036 33.5588 30.1681 33.8232C30.1681 33.691 30.0358 33.6908 30.0358 33.6908C30.4127 33.314 31.0285 32.9371 32.1099 33.014C32.4844 32.3629 33.4621 30.2722 33.3415 27.7422C33.2093 24.305 29.507 22.5862 29.507 22.5862C35.5894 27.2132 30.4325 32.7655 30.1681 32.7655C30.3003 32.1045 30.3003 31.4438 30.3003 31.0472C30.3003 29.0642 30.0358 27.0811 29.6391 25.6269C29.2425 24.3049 28.5814 23.2474 28.0525 22.0576C26.9947 19.5458 25.1435 14.7864 25.0112 14.2576C25.0087 14.2508 25.0061 14.2441 25.0032 14.2374C24.8397 14.8368 24.5028 15.1067 23.5568 15.5796C22.6312 15.844 20.9122 17.2983 19.7222 17.2983C19.1933 17.2983 18.4 17.2981 17.871 17.1659C17.4744 17.0337 16.8132 16.3729 16.152 15.7119C16.0021 15.612 15.8568 15.512 15.7199 15.4103C15.6807 15.945 15.6232 16.5557 15.6232 17.1663C15.491 19.2814 13.5075 22.7185 12.7142 23.6439C11.9208 24.5693 11.2597 26.2877 10.8631 27.4775C10.3342 29.1961 10.2019 30.9148 10.2019 30.9148C9.1742 29.4306 10.7105 25.0871 11.1487 23.9299L9.54072 27.0809L9.06216 31.0043C9.11591 31.2566 9.1889 31.4896 9.27633 31.7082C9.40856 31.8404 9.54074 32.1048 9.80519 32.3692L10.8631 33.4265C11.392 33.9553 11.9209 34.352 12.8465 35.1451C13.772 35.9383 15.7554 37.3925 16.0198 37.7891C16.2843 38.1857 16.5488 38.8468 16.1521 39.5078C16.0199 39.7722 15.6232 39.9043 15.2265 40.0365C15.0943 40.1687 14.8298 40.1688 14.6976 40.1688Z" fill="#E3C4AD"/>
<path d="M24.879 43.2091H16.681L15.5824 42.5929C15.813 43.0888 15.9349 43.6424 15.8876 44.3991C15.8876 44.6192 15.878 44.8261 15.8598 45.0208C16.6459 44.9281 18.6134 44.9281 20.3747 44.9281H20.3833C23.0153 44.8028 24.5781 44.6774 26.6483 45.115C26.6155 44.8557 26.598 44.573 26.598 44.2668C26.598 43.4674 26.743 42.668 26.9161 41.6641L24.879 43.2091Z" fill="#A07250"/>
<path fill-rule="evenodd" clip-rule="evenodd" d="M16.0198 12.1426C15.2265 12.8036 14.6976 13.0678 14.6976 13.861C14.6976 14.1052 14.7603 14.3244 14.8702 14.5263L14.8298 13.5966L22.9127 13.3045C23.6147 12.9097 23.8502 12.8179 24.0856 12.9356C24.2092 12.9974 24.1307 13.1169 23.9444 13.2672L25.1531 13.2235C25.1707 12.6698 24.6781 12.3712 24.0124 12.1591C23.6552 12.4826 23.2255 12.6713 22.7634 12.6713C21.8862 12.6713 21.1264 11.9916 20.756 11.0004C20.201 10.8211 19.612 10.6883 19.061 10.6883C18.84 10.6883 18.619 10.7188 18.4027 10.7711C18.3038 11.1394 18.1524 11.4658 17.9628 11.7283C18.0047 11.6901 18.059 11.6518 18.1354 11.6136C18.5321 11.6136 18.6644 11.7458 18.3999 11.878C18.2677 11.878 18.1355 12.0101 18.0032 12.1423C18.0032 12.2745 17.7388 12.1425 17.7388 12.0103C17.7782 11.9709 17.8058 11.9315 17.8323 11.8921C17.5471 12.2155 17.1947 12.4066 16.8132 12.4066C16.5347 12.4066 16.2717 12.3048 16.0391 12.124L16.0198 12.1426ZM20.3833 12.1426C20.2511 12.0104 19.9867 12.0104 19.8544 11.746C19.8544 11.6138 20.5156 11.6139 20.5156 11.8783C20.6478 11.8783 20.78 12.1424 20.6478 12.2746C20.6478 12.2746 20.5155 12.2748 20.3833 12.1426Z" fill="#DCA780"/>
<path d="M17.9628 11.7283C18.1524 11.4658 18.3038 11.1394 18.4027 10.7711C18.1495 10.8322 17.9028 10.923 17.6698 11.0294C17.542 11.3689 17.3243 11.5995 17.0542 11.6336C16.9423 11.6478 16.8309 11.6271 16.7238 11.5769C16.37 11.8241 16.1207 12.0463 16.0391 12.124C16.2717 12.3048 16.5347 12.4066 16.8132 12.4066C17.1947 12.4066 17.5471 12.2155 17.8323 11.8921C17.8689 11.8375 17.9031 11.7829 17.9628 11.7283Z" fill="#DCA780"/>
<path d="M17.0542 11.6336C17.3243 11.5995 17.542 11.3689 17.6698 11.0294C17.3134 11.1922 16.9892 11.3916 16.7238 11.5769C16.8309 11.6271 16.9423 11.6478 17.0542 11.6336Z" fill="#DCA780"/>
<path d="M22.6312 11.8783C22.7032 11.8783 22.7739 11.8708 22.8428 11.8564C22.5739 11.7445 22.1599 11.5448 21.6714 11.3418C21.9123 11.6722 22.2532 11.8783 22.6312 11.8783Z" fill="#DCA780"/>
<path d="M22.7634 12.6713C23.2255 12.6713 23.6552 12.4826 24.0124 12.1591C23.6706 12.0502 23.2831 11.9641 22.8956 11.878C22.8787 11.8712 22.8611 11.864 22.8428 11.8564C22.7739 11.8708 22.7032 11.8783 22.6312 11.8783C22.2532 11.8783 21.9123 11.6722 21.6714 11.3418C21.3869 11.2235 21.0771 11.1042 20.756 11.0004C21.1264 11.9916 21.8862 12.6713 22.7634 12.6713Z" fill="#DCA780"/>
<path d="M19.061 15.0506C19.4577 15.0506 19.9866 14.7865 20.3833 14.6543C21.1072 14.2924 21.7209 14.0405 22.4255 13.5975C20.1641 13.575 17.0994 14.0214 16.0795 14.3874C16.1567 14.4456 16.2268 14.4932 16.2843 14.522C16.4165 14.522 16.5487 14.6541 16.8132 14.7863C17.2099 14.9185 17.4744 15.0506 17.871 15.0506H19.061Z" fill="#DCA780"/>
<path d="M15.0942 13.861C14.962 13.7288 15.2265 13.7286 15.2265 13.7286C15.4334 13.8321 15.8022 14.1783 16.0795 14.3874C17.0994 14.0214 20.1641 13.575 22.4255 13.5975C22.4932 13.5549 22.5617 13.5106 22.6312 13.4643C22.7327 13.4063 22.8262 13.3531 22.9127 13.3045L14.8298 13.5966L14.8702 14.5263C15.0498 14.856 15.3555 15.1395 15.7199 15.4103C15.7401 15.1346 15.7554 14.8791 15.7554 14.6543C15.7204 14.6193 15.7282 14.5809 15.7734 14.5401L15.0942 13.861Z" fill="#DCA780"/>
<path d="M19.7222 17.2983C20.9122 17.2983 22.6312 15.844 23.5568 15.5796C24.5028 15.1067 24.8397 14.8368 25.0032 14.2374C24.8602 13.9028 24.2431 13.7196 23.3897 13.642C23.2732 13.7138 23.1503 13.7875 23.0278 13.861C22.3667 14.1254 22.2345 14.3897 21.3089 14.7863C20.3833 15.3151 19.4577 15.5796 18.7966 15.5796H17.6066C17.6066 15.5796 17.2099 15.4475 16.9454 15.3153C16.5488 15.1831 16.1521 14.9187 15.8877 14.6543L15.7734 14.5401C15.7282 14.5809 15.7204 14.6193 15.7554 14.6543C15.7554 14.8791 15.7401 15.1346 15.7199 15.4103C15.8568 15.512 16.0021 15.612 16.152 15.7119C16.8132 16.3729 17.4744 17.0337 17.871 17.1659C18.4 17.2981 19.1933 17.2983 19.7222 17.2983Z" fill="#DCA780"/>
<path d="M25.1531 13.2235L23.9444 13.2672C23.806 13.3788 23.6082 13.5075 23.3897 13.642C24.2431 13.7196 24.8602 13.9028 25.0032 14.2374C25.0683 13.999 25.1059 13.7084 25.1435 13.3323C25.1488 13.295 25.152 13.2587 25.1531 13.2235Z" fill="#DCA780"/>
<path d="M19.8544 11.746C19.9867 12.0104 20.2511 12.0104 20.3833 12.1426C20.5155 12.2748 20.6478 12.2746 20.6478 12.2746C20.78 12.1424 20.6478 11.8783 20.5156 11.8783C20.5156 11.6139 19.8544 11.6138 19.8544 11.746Z" fill="#A07250"/>
<path d="M17.7388 12.0103C17.7388 12.1425 18.0032 12.2745 18.0032 12.1423C18.1355 12.0101 18.2677 11.878 18.3999 11.878C18.6644 11.7458 18.5321 11.6136 18.1354 11.6136C18.059 11.6518 18.0047 11.6901 17.9628 11.7283C17.9211 11.7861 17.8775 11.8407 17.8323 11.8921C17.8058 11.9315 17.7782 11.9709 17.7388 12.0103Z" fill="#A07250"/>
<path d="M15.8877 14.6543C16.1521 14.9187 16.5488 15.1831 16.9454 15.3153C17.2099 15.4475 17.6066 15.5796 17.6066 15.5796H18.7966C19.4577 15.5796 20.3833 15.3151 21.3089 14.7863C22.2345 14.3897 22.3667 14.1254 23.0278 13.861C23.1503 13.7875 23.2732 13.7138 23.3897 13.642C23.0935 13.6151 22.7687 13.6009 22.4255 13.5975C21.7209 14.0405 21.1072 14.2924 20.3833 14.6543C19.9866 14.7865 19.4577 15.0506 19.061 15.0506H17.871C17.4744 15.0506 17.2099 14.9185 16.8132 14.7863C16.5487 14.6541 16.4165 14.522 16.2843 14.522C16.2268 14.4932 16.1567 14.4456 16.0795 14.3874C15.9315 14.4406 15.8266 14.492 15.7734 14.5401L15.8877 14.6543Z" fill="#A07250"/>
<path d="M15.2265 13.7286C15.2265 13.7286 14.962 13.7288 15.0942 13.861L15.7734 14.5401C15.8266 14.492 15.9315 14.4406 16.0795 14.3874C15.8022 14.1783 15.4334 13.8321 15.2265 13.7286Z" fill="#A07250"/>
<path d="M22.9127 13.3045C22.8262 13.3531 22.7327 13.4063 22.6312 13.4643C22.5617 13.5106 22.4932 13.5549 22.4255 13.5975C22.7687 13.6009 23.0935 13.6151 23.3897 13.642C23.6082 13.5075 23.806 13.3788 23.9444 13.2672L22.9127 13.3045Z" fill="#A07250"/>
<path d="M24.0856 12.9356C23.8502 12.8179 23.6147 12.9097 22.9127 13.3045L23.9444 13.2672C24.1307 13.1169 24.2092 12.9974 24.0856 12.9356Z" fill="#A07250"/>
<path d="M22.6312 8.44099C21.9009 8.44099 21.3089 9.21049 21.3089 10.1596C21.3089 10.6176 21.4467 11.0337 21.6714 11.3418C22.1599 11.5448 22.5739 11.7445 22.8428 11.8564C23.4725 11.7247 23.9534 11.0152 23.9534 10.1596C23.9534 9.21049 23.3614 8.44099 22.6312 8.44099Z" fill="#A07250"/>
<path d="M17.7735 9.94404C17.6636 9.07483 17.1633 8.42208 16.6562 8.48617C16.1491 8.55026 15.8271 9.30688 15.937 10.1761C16.0226 10.8537 16.3454 11.3995 16.7238 11.5769C16.9892 11.3916 17.3134 11.1922 17.6698 11.0294C17.7819 10.7317 17.8248 10.3502 17.7735 9.94404Z" fill="#A07250"/>
<path d="M14.9621 16.6373L12.8464 20.6032L11.1487 23.9299C10.7105 25.0871 9.1742 29.4306 10.2019 30.9148C10.2019 30.9148 10.3342 29.1961 10.8631 27.4775C11.2597 26.2877 11.9208 24.5693 12.7142 23.6439C13.5075 22.7185 15.491 19.2814 15.6232 17.1663C15.6232 16.5557 15.6807 15.945 15.7199 15.4103C15.3555 15.1395 15.0498 14.856 14.8702 14.5263L14.9621 16.6373Z" fill="#A07250"/>
<path d="M35.986 28.2705L28.0524 18.6203L25.8046 13.2L25.1531 13.2235C25.152 13.2587 25.1488 13.295 25.1435 13.3323C25.1059 13.7084 25.0683 13.999 25.0032 14.2374C25.0061 14.2441 25.0087 14.2508 25.0112 14.2576C25.1435 14.7864 26.9947 19.5458 28.0525 22.0576C28.5814 23.2474 29.2425 24.3049 29.6391 25.6269C30.0358 27.0811 30.3003 29.0642 30.3003 31.0472C30.3003 31.4438 30.3003 32.1045 30.1681 32.7655C30.4325 32.7655 35.5894 27.2132 29.507 22.5862C29.507 22.5862 33.2093 24.305 33.3415 27.7422C33.4621 30.2722 32.4844 32.3629 32.1099 33.014C32.1665 33.018 32.2244 33.0233 32.2837 33.0298C32.5481 33.0298 33.2093 33.1623 33.6059 33.2945C33.7622 33.3335 33.9069 33.3841 34.0367 33.4429L35.986 28.2705Z" fill="#A07250"/>
<path d="M16.681 43.2091H24.879L26.9161 41.6641C27.0119 41.109 27.1162 40.4915 27.2093 39.7768C25.8457 40.8903 23.6529 42.0492 21.5734 42.4161C19.59 42.8127 16.2843 42.1518 14.6976 40.1688C14.8298 40.1688 15.0943 40.1687 15.2265 40.0365C15.6232 39.9043 16.0199 39.7722 16.1521 39.5078C16.5488 38.8468 16.2843 38.1857 16.0198 37.7891C15.7554 37.3925 13.772 35.9383 12.8465 35.1451C11.9209 34.352 11.392 33.9553 10.8631 33.4265L9.80519 32.3692C9.54074 32.1048 9.40856 31.8404 9.27633 31.7082C9.1889 31.4896 9.11591 31.2566 9.06216 31.0043L8.87959 32.5012L8.94297 32.7053C9.81456 33.5508 10.7375 34.9361 11.2596 35.8061C12.1852 37.1281 12.3175 37.5249 13.6398 39.6401C14.4041 40.9986 15.1684 41.7027 15.5824 42.5929L16.681 43.2091Z" fill="#A07250"/>
<path d="M10.3341 25.2302C9.673 26.5522 9.14409 27.742 9.01186 29.1962C8.92336 29.9041 8.95334 30.4936 9.06216 31.0043L9.54072 27.0809L11.1487 23.9299C11.2179 23.7472 11.2597 23.6439 11.2597 23.6439C11.2597 23.6439 10.5986 24.7014 10.3341 25.2302Z" fill="#A07250"/>
<path d="M30.5647 35.4095V35.8061C30.8292 36.3349 31.4903 36.4671 32.0192 36.4671C32.3516 36.4671 32.684 36.3743 32.9872 36.2276L33.5799 34.6549C32.4794 34.9399 31.2627 34.9635 30.2821 33.9473C30.4705 34.1731 30.5647 34.4137 30.5647 34.7485C30.697 35.0129 30.5647 35.1451 30.5647 35.4095Z" fill="#A07250"/>
<path d="M30.0358 33.6908C30.0358 33.6908 30.1681 33.691 30.1681 33.8232C30.2093 33.8644 30.2473 33.9056 30.2821 33.9473C31.2627 34.9635 32.4794 34.9399 33.5799 34.6549L33.8565 33.921C33.0591 33.5804 32.0977 33.1622 32.0193 33.1622C32.0427 33.127 32.0735 33.0773 32.1099 33.014C31.0285 32.9371 30.4127 33.314 30.0358 33.6908Z" fill="#A07250"/>
<path d="M34.0026 35.4095C34.0026 35.2773 34.1348 35.145 34.2671 35.0128C34.4921 34.6754 34.6214 34.4338 34.7364 34.2878C34.7291 34.285 34.7216 34.282 34.714 34.279C34.3624 34.414 33.9788 34.5516 33.5799 34.6549L32.9872 36.2276C33.4077 36.024 33.7721 35.7167 34.0026 35.4095Z" fill="#A07250"/>
<path d="M33.6059 33.2945C33.2093 33.1623 32.5481 33.0298 32.2837 33.0298C32.2244 33.0233 32.1665 33.018 32.1099 33.014C32.0735 33.0773 32.0427 33.127 32.0193 33.1622C32.0977 33.1622 33.0591 33.5804 33.8565 33.921L34.0367 33.4429C33.9069 33.3841 33.7622 33.3335 33.6059 33.2945Z" fill="#A07250"/>
<path d="M34.796 34.2198C34.796 34.2198 34.6637 34.0877 34.6637 33.9555C34.5706 33.7692 34.3461 33.5829 34.0367 33.4429L33.8565 33.921C34.2011 34.0682 34.5151 34.2009 34.714 34.279L34.7571 34.2624C34.7701 34.247 34.7831 34.2328 34.796 34.2198Z" fill="#A07250"/>
<path d="M33.8565 33.921L33.5799 34.6549C33.9788 34.5516 34.3624 34.414 34.714 34.279C34.5151 34.2009 34.2011 34.0682 33.8565 33.921Z" fill="#A07250"/>
<path d="M30.1681 33.8232C29.9036 33.5588 29.507 33.1622 28.8458 33.1622C28.1847 33.1622 27.9202 33.4267 27.6558 33.9555C27.3913 34.4843 27.3913 34.8808 27.3913 36.2028C27.3913 37.2604 27.3913 38.4501 27.2591 39.3755C27.243 39.5126 27.2263 39.6463 27.2093 39.7768C27.3197 39.6867 27.4246 39.5969 27.5236 39.5078C27.4007 40.2449 27.2778 40.868 27.1549 41.483L32.5481 37.3925L32.9872 36.2276C32.684 36.3743 32.3516 36.4671 32.0192 36.4671C31.4903 36.4671 30.8292 36.3349 30.5647 35.8061V35.4095C30.5647 35.1451 30.697 35.0129 30.5647 34.7485C30.5647 34.4137 30.4705 34.1731 30.2821 33.9473C30.2437 33.9075 30.2057 33.8661 30.1681 33.8232Z" fill="#DCA780"/>
<path d="M26.8624 44.0024C26.8624 44.399 26.9946 44.7958 26.9946 45.1924C26.8775 45.1649 26.7621 45.1391 26.6483 45.115C26.7709 46.0873 27.106 46.73 27.5236 47.0431C27.9202 47.4397 28.5813 47.7041 30.0358 47.7041C31.4903 47.7041 32.4159 47.1751 33.3415 46.2498C34.0026 45.5888 34.5316 45.3244 36.3827 44.0024C37.8372 43.077 40.085 41.8874 40.4817 41.4908C40.7462 41.2264 41.1429 41.094 41.1429 40.3008C41.1429 39.6398 40.6139 39.3757 40.2173 39.2435C39.6884 38.9791 38.7628 38.5823 37.9694 37.3925C37.5727 36.7315 37.705 34.8807 37.0439 34.0875C36.8976 33.8924 36.7332 33.8053 36.5775 33.773C36.5532 33.8429 36.5319 33.9046 36.5149 33.9555C36.5149 33.9555 35.4571 34.3521 34.9282 34.3521C34.9096 34.3521 34.8409 34.3285 34.7364 34.2878C34.6214 34.4338 34.4921 34.6754 34.2671 35.0128C34.1348 35.145 34.0026 35.2773 34.0026 35.4095C33.7721 35.7167 33.4077 36.024 32.9872 36.2276L32.5481 37.3925L27.1549 41.483L27.1269 41.6231C26.9947 42.5485 26.8624 43.2092 26.8624 44.0024Z" fill="#DCA780"/>
<path d="M26.9946 45.1924C26.9946 44.7958 26.8624 44.399 26.8624 44.0024C26.8624 43.2092 26.9947 42.5485 27.1269 41.6231L27.1549 41.483L26.9161 41.6641C26.743 42.668 26.598 43.4674 26.598 44.2668C26.598 44.573 26.6155 44.8557 26.6483 45.115C26.7621 45.1391 26.8775 45.1649 26.9946 45.1924Z" fill="#DCA780"/>
<path d="M27.1549 41.483C27.2778 40.868 27.4007 40.2449 27.5236 39.5078C27.4246 39.5969 27.3197 39.6867 27.2093 39.7768C27.1162 40.4915 27.0119 41.109 26.9161 41.6641L27.1549 41.483Z" fill="#DCA780"/>
<path d="M15.6232 45.0601C15.6818 45.0454 15.7616 45.0324 15.8598 45.0208C15.878 44.8261 15.8876 44.6192 15.8876 44.3991C15.9349 43.6424 15.813 43.0888 15.5824 42.5929L13.2324 41.2749C14.595 43.3405 15.6232 44.9672 15.6232 45.0601Z" fill="#DCA780"/>
<path d="M13.6398 39.6401C12.3175 37.5249 12.1852 37.1281 11.2596 35.8061C10.7375 34.9361 9.81456 33.5508 8.94297 32.7053L10.2179 36.8124C11.2324 38.2743 12.3091 39.8753 13.2324 41.2749L15.5824 42.5929C15.1684 41.7027 14.4041 40.9986 13.6398 39.6401Z" fill="#DCA780"/>
<path d="M6.70331 32.2544C7.11343 32.4664 8.58497 34.4592 10.2179 36.8124L8.94297 32.7053C8.49018 32.2661 8.05125 31.9725 7.6896 31.9725C7.27905 31.9725 6.97472 32.0787 6.70331 32.2544Z" fill="#DCA780"/>
<path d="M10.2179 36.8124L11.2597 40.1685L13.2324 41.2749C12.3091 39.8753 11.2324 38.2743 10.2179 36.8124Z" fill="#DCA780"/>
<path d="M5.97059 32.8978C5.44169 33.4266 4.91278 34.6165 3.9872 35.2775C3.19384 35.9385 0.946056 35.8063 0.417151 36.5995C-0.111755 37.3927 0.946008 38.5825 0.946008 40.5654C0.946008 41.3586 0.284908 41.8873 0.152682 42.4161C0.0204555 43.0771 -0.111771 43.474 0.152682 44.0028C0.681587 44.7959 1.3427 45.0603 5.8384 45.9857C8.21847 46.5145 10.4663 47.8365 11.9208 47.9687C13.2856 48.0928 15.5818 47.9838 15.8598 45.0208C15.7616 45.0324 15.6818 45.0454 15.6232 45.0601C15.6232 44.9672 14.595 43.3405 13.2324 41.2749L11.2597 40.1685L10.2179 36.8124C8.58497 34.4592 7.11343 32.4664 6.70331 32.2544C6.45024 32.4183 6.2258 32.6427 5.97059 32.8978Z" fill="#DCA780"/>
</svg>
