<svg xmlns="http://www.w3.org/2000/svg" width="42" height="48" fill="none"><path fill="#A07250" d="M34.93 34.35c.53 0 1.58-.4 1.58-.4l.07-.18c-.27-.05-.51.05-.6.05-.3.07-.73.25-1.22.44l-.02.03.19.06Z"/><path fill="#A07250" d="m12.85 20.6 2.11-3.96-.09-2.11c-.11-.2-.17-.42-.17-.67 0-.8.53-1.06 1.32-1.72l.02-.02c-.56-.43-.95-1.33-.95-2.36 0-1.46.77-2.64 1.72-2.64s1.72 1.18 1.72 2.64c0 .36-.04.7-.13 1.01.22-.05.44-.08.66-.08.55 0 1.14.13 1.7.31a3.92 3.92 0 0 1-.24-1.37c0-1.68 1-3.04 2.24-3.04 1.24 0 2.25 1.36 2.25 3.04 0 1.05-.4 1.98-1 2.53.67.21 1.16.51 1.14 1.06l.65-.02 2.25 5.42L36 28.27l-1.95 5.17c.3.14.53.33.62.52 0 .13.14.26.14.26a.72.72 0 0 0-.04.04c.49-.19.91-.37 1.23-.44.08 0 .32-.1.59-.05.16-.47.46-1.32.46-1.67.93-3.04-1.32-7.93-3.43-10.97-2.12-3.04-3.84-4.89-4.76-8.72-.93-3.84.26-2.78-.53-6.08-.4-1.72-1.06-2.91-1.72-3.84A5.02 5.02 0 0 0 24.35.91a7.51 7.51 0 0 0-7.4.13c-3.57 1.85-3.18 5.81-2.52 13.88 0 .53-.13 1.19-.4 1.72-.52 1.19-1.45 2.24-2.24 3.17-.93 1.32-1.85 2.64-2.51 4.1-1.59 3.04-3.04 6.87-2.65 8.33l.07.01c.27-.17.58-.28.99-.28.36 0 .8.3 1.25.74l-.06-.2.18-1.5c-.1-.52-.14-1.1-.05-1.81.13-1.46.66-2.65 1.32-3.97.27-.53.93-1.59.93-1.59l-.11.29 1.7-3.33Z"/><path fill="#E3C4AD" d="M22.76 6.59c-1.24 0-2.24 1.36-2.24 3.04 0 .5.08.96.24 1.37.32.1.63.22.91.34-.22-.3-.36-.72-.36-1.18 0-.95.6-1.72 1.32-1.72.73 0 1.32.77 1.32 1.72 0 .86-.48 1.56-1.1 1.7l.05.02c.38.08.77.17 1.11.28.6-.55 1-1.48 1-2.53 0-1.68-1-3.04-2.25-3.04ZM16.81 7.12c-.95 0-1.72 1.18-1.72 2.64 0 1.03.39 1.93.95 2.36.08-.07.33-.3.68-.54-.37-.18-.7-.73-.78-1.4-.11-.87.2-1.63.72-1.7.5-.06 1 .6 1.11 1.46.05.41.01.8-.1 1.09.23-.1.48-.2.73-.26.09-.31.13-.65.13-1 0-1.47-.77-2.65-1.72-2.65ZM14.7 40.17c1.58 1.98 4.89 2.64 6.87 2.25a13.34 13.34 0 0 0 5.64-2.64l.05-.4c.13-.93.13-2.12.13-3.18 0-1.32 0-1.72.27-2.24.26-.53.52-.8 1.19-.8.66 0 1.05.4 1.32.66 0-.13-.13-.13-.13-.13.37-.38.99-.75 2.07-.68.37-.65 1.35-2.74 1.23-5.27-.13-3.43-3.83-5.15-3.83-5.15 6.08 4.62.92 10.18.66 10.18.13-.67.13-1.33.13-1.72 0-1.99-.26-3.97-.66-5.42-.4-1.33-1.06-2.38-1.59-3.57A158.37 158.37 0 0 1 25 14.24c-.16.6-.5.87-1.44 1.34-.93.26-2.65 1.72-3.84 1.72-.53 0-1.32 0-1.85-.13-.4-.14-1.06-.8-1.72-1.46l-.43-.3c-.04.54-.1 1.15-.1 1.76-.13 2.11-2.11 5.55-2.9 6.47-.8.93-1.46 2.65-1.86 3.84-.53 1.72-.66 3.43-.66 3.43-1.03-1.48.51-5.82.95-6.98l-1.6 3.15L9.05 31c.06.26.13.49.22.7.13.14.26.4.53.67l1.05 1.06c.53.53 1.06.92 1.99 1.72.92.79 2.9 2.24 3.17 2.64.26.4.53 1.06.13 1.72-.13.26-.53.4-.92.53-.14.13-.4.13-.53.13Z"/><path fill="#A07250" d="M24.88 43.2h-8.2l-1.1-.6c.23.49.35 1.04.3 1.8 0 .22 0 .43-.02.62.79-.1 2.75-.1 4.51-.1h.01c2.64-.12 4.2-.24 6.27.2a6.77 6.77 0 0 1-.05-.85c0-.8.14-1.6.32-2.6l-2.04 1.54Z"/><path fill="#DCA780" fill-rule="evenodd" d="M16.02 12.14c-.8.66-1.32.93-1.32 1.72 0 .25.06.46.17.67l-.04-.93 8.08-.3c.7-.39.94-.48 1.18-.36.12.06.04.18-.15.33l1.21-.05c.02-.55-.47-.85-1.14-1.06-.35.32-.78.51-1.25.51-.87 0-1.63-.68-2-1.67a5.67 5.67 0 0 0-1.7-.31c-.22 0-.44.03-.66.08-.1.37-.25.7-.44.96.04-.04.1-.08.18-.12.4 0 .52.14.26.27-.13 0-.26.13-.4.26 0 .13-.26 0-.26-.13a.75.75 0 0 0 .1-.12c-.3.33-.65.52-1.03.52-.28 0-.54-.1-.77-.29l-.02.02Zm4.36 0c-.13-.13-.4-.13-.53-.4 0-.13.67-.13.67.14.13 0 .26.26.13.4 0 0-.13 0-.27-.14Z" clip-rule="evenodd"/><path fill="#DCA780" d="M17.96 11.73c.2-.26.34-.6.44-.96-.25.06-.5.15-.73.26-.13.34-.35.57-.62.6a.6.6 0 0 1-.33-.05c-.35.24-.6.47-.68.54.23.18.5.29.77.29.38 0 .74-.2 1.02-.52l.13-.16Z"/><path fill="#DCA780" d="M17.05 11.63c.27-.03.5-.26.62-.6-.36.16-.68.36-.95.55.11.05.22.07.33.05ZM22.63 11.88c.07 0 .14 0 .21-.02-.27-.12-.68-.32-1.17-.52.24.33.58.54.96.54Z"/><path fill="#DCA780" d="M22.76 12.67c.47 0 .9-.19 1.25-.51-.34-.11-.73-.2-1.11-.28l-.06-.02-.2.02c-.39 0-.73-.2-.97-.54-.28-.12-.6-.24-.91-.34.37 1 1.13 1.67 2 1.67ZM19.06 15.05c.4 0 .93-.26 1.32-.4.73-.36 1.34-.61 2.05-1.05-2.27-.03-5.33.42-6.35.79l.2.13c.14 0 .27.13.53.27.4.13.66.26 1.06.26h1.2Z"/><path fill="#DCA780" d="M15.1 13.86c-.14-.13.13-.13.13-.13.2.1.57.45.85.66 1.02-.37 4.08-.82 6.35-.8l.2-.13c.1-.05.2-.1.28-.16l-8.08.3.04.93c.18.33.49.61.85.88a10.7 10.7 0 0 0 .05-.87l-.68-.68Z"/><path fill="#DCA780" d="M19.72 17.3c1.2 0 2.91-1.46 3.84-1.72.94-.47 1.28-.74 1.44-1.34-.14-.34-.76-.52-1.61-.6l-.36.22c-.66.27-.8.53-1.72.93-.93.53-1.85.79-2.51.79h-1.2s-.39-.13-.65-.26c-.4-.14-.8-.4-1.06-.67l-.12-.11c-.04.04-.05.08-.01.11 0 .23-.02.48-.04.76l.43.3a7.06 7.06 0 0 0 1.72 1.46c.53.13 1.32.13 1.85.13Z"/><path fill="#DCA780" d="m25.15 13.22-1.2.05c-.14.1-.34.24-.56.37.85.08 1.47.26 1.61.6a5.73 5.73 0 0 0 .15-1.02Z"/><path fill="#A07250" d="M19.85 11.75c.14.26.4.26.53.4.14.12.27.12.27.12.13-.13 0-.4-.13-.4 0-.26-.67-.26-.67-.12ZM17.74 12.01c0 .13.26.26.26.13.14-.13.27-.26.4-.26.26-.13.13-.27-.26-.27a.75.75 0 0 0-.18.12l-.13.16a.75.75 0 0 1-.1.12ZM15.89 14.65c.26.27.66.53 1.06.67.26.13.66.26.66.26h1.19c.66 0 1.58-.26 2.5-.8.93-.39 1.07-.65 1.73-.92l.36-.22c-.3-.02-.62-.04-.96-.04-.7.44-1.32.7-2.05 1.05-.4.14-.92.4-1.32.4h-1.19c-.4 0-.66-.13-1.06-.26-.26-.14-.4-.27-.53-.27a1.44 1.44 0 0 1-.2-.13 1 1 0 0 0-.3.15l.1.11Z"/><path fill="#A07250" d="M15.23 13.73s-.27 0-.14.13l.68.68a1 1 0 0 1 .3-.15c-.27-.21-.64-.56-.84-.66ZM22.91 13.3a45.3 45.3 0 0 0-.48.3c.34 0 .66.02.96.04.22-.13.42-.26.55-.37l-1.03.03ZM24.09 12.94c-.24-.12-.48-.03-1.18.36l1.03-.03c.2-.15.27-.27.15-.33ZM22.63 8.44c-.73 0-1.32.77-1.32 1.72 0 .46.14.87.36 1.18.49.2.9.4 1.17.52.63-.14 1.11-.84 1.11-1.7 0-.95-.59-1.72-1.32-1.72ZM17.77 9.94c-.1-.87-.6-1.52-1.11-1.45-.51.06-.83.82-.72 1.69.08.67.4 1.22.78 1.4.27-.19.6-.39.95-.55.11-.3.15-.68.1-1.09ZM14.96 16.64l-2.11 3.96-1.7 3.33c-.44 1.16-1.98 5.5-.95 6.98 0 0 .13-1.71.66-3.43.4-1.2 1.06-2.91 1.85-3.84.8-.92 2.78-4.36 2.91-6.47 0-.61.06-1.23.1-1.76a2.9 2.9 0 0 1-.85-.88l.1 2.1ZM35.99 28.27l-7.94-9.65-2.25-5.42-.65.02a5.73 5.73 0 0 1-.14 1.03c.13.54 1.98 5.3 3.04 7.8.53 1.2 1.2 2.25 1.59 3.58.4 1.45.66 3.43.66 5.42 0 .4 0 1.05-.13 1.72.26 0 5.42-5.56-.66-10.18 0 0 3.7 1.71 3.83 5.15.12 2.53-.86 4.62-1.23 5.27l.17.02a5.82 5.82 0 0 1 1.76.41l1.95-5.17ZM16.68 43.2h8.2l2.04-1.54c.1-.55.2-1.17.29-1.88a13.34 13.34 0 0 1-5.64 2.64c-1.98.4-5.29-.27-6.87-2.25.13 0 .4 0 .53-.13.4-.14.79-.27.92-.53.4-.66.13-1.32-.13-1.72-.26-.4-2.25-1.85-3.17-2.64-.93-.8-1.46-1.2-1.99-1.72l-1.05-1.06c-.27-.27-.4-.53-.53-.66a4.3 4.3 0 0 1-.22-.7l-.18 1.5.06.2c.87.84 1.8 2.23 2.32 3.1.93 1.32 1.06 1.71 2.38 3.83.76 1.36 1.53 2.06 1.94 2.95l1.1.62Z"/><path fill="#A07250" d="M10.33 25.23a10.82 10.82 0 0 0-1.32 3.97c-.09.7-.06 1.3.05 1.8l.48-3.92 1.6-3.15.12-.29s-.66 1.06-.93 1.59ZM30.56 35.41v.4c.27.52.93.66 1.46.66.33 0 .66-.1.97-.24l.59-1.58c-1.1.29-2.32.31-3.3-.7.2.22.28.46.28.8.14.26 0 .4 0 .66Z"/><path fill="#A07250" d="M30.04 33.7s.13 0 .13.12l.11.13c.98 1.01 2.2.99 3.3.7l.28-.73c-.8-.34-1.76-.76-1.84-.76l.09-.15c-1.08-.07-1.7.3-2.07.68Z"/><path fill="#A07250" d="M34 35.41c0-.13.13-.26.27-.4.22-.33.35-.58.47-.72l-.03-.01c-.35.13-.73.27-1.13.37l-.6 1.58c.43-.2.8-.51 1.02-.82ZM33.6 33.3a5.82 5.82 0 0 0-1.49-.29l-.1.15c.09 0 1.05.42 1.85.76l.18-.48c-.13-.06-.28-.1-.43-.15ZM34.8 34.22s-.14-.13-.14-.26c-.09-.2-.31-.38-.62-.52l-.18.48.85.36.05-.02a.72.72 0 0 1 .04-.04Z"/><path fill="#A07250" d="m33.86 33.92-.28.73c.4-.1.78-.24 1.13-.37l-.85-.36Z"/><path fill="#DCA780" d="M30.17 33.82c-.27-.26-.66-.66-1.32-.66-.67 0-.93.27-1.2.8-.26.52-.26.92-.26 2.24 0 1.06 0 2.25-.13 3.18l-.05.4.31-.27c-.12.73-.24 1.36-.37 1.97l5.4-4.09.44-1.16c-.3.14-.64.24-.97.24-.53 0-1.2-.14-1.46-.66v-.4c0-.26.14-.4 0-.66 0-.34-.09-.58-.28-.8a3.52 3.52 0 0 1-.11-.13Z"/><path fill="#DCA780" d="M26.86 44c0 .4.13.8.13 1.2-.11-.04-.23-.06-.34-.09.12.98.46 1.62.87 1.93.4.4 1.06.66 2.52.66a4.3 4.3 0 0 0 3.3-1.45c.66-.66 1.2-.93 3.04-2.25 1.46-.92 3.7-2.11 4.1-2.5.27-.27.66-.4.66-1.2 0-.66-.53-.92-.92-1.06-.53-.26-1.46-.66-2.25-1.85-.4-.66-.27-2.5-.93-3.3a.77.77 0 0 0-.46-.32l-.07.19s-1.05.4-1.58.4l-.2-.07-.46.72c-.14.14-.27.27-.27.4-.23.3-.6.61-1.01.82l-.44 1.16-5.4 4.1-.02.13c-.14.93-.27 1.59-.27 2.38Z"/><path fill="#DCA780" d="M27 45.2c0-.4-.14-.8-.14-1.2 0-.8.13-1.45.27-2.38l.02-.14-.23.18c-.18 1-.32 1.8-.32 2.6 0 .31.02.6.05.86l.34.07Z"/><path fill="#DCA780" d="M27.15 41.48c.13-.61.25-1.24.37-1.97l-.31.27c-.1.71-.2 1.33-.3 1.88l.24-.18ZM15.62 45.06l.24-.04c.02-.2.03-.4.03-.62a3.56 3.56 0 0 0-.3-1.8l-2.36-1.33c1.37 2.07 2.4 3.7 2.4 3.79ZM13.64 39.64c-1.32-2.12-1.45-2.51-2.38-3.83a16.98 16.98 0 0 0-2.32-3.1l1.28 4.1c1.01 1.46 2.09 3.07 3.01 4.46l2.35 1.32c-.41-.89-1.18-1.6-1.94-2.95Z"/><path fill="#DCA780" d="M6.7 32.25c.41.22 1.88 2.2 3.52 4.56l-1.28-4.1c-.45-.44-.89-.74-1.25-.74-.41 0-.72.1-.99.28ZM10.22 36.81l1.04 3.36 1.97 1.1c-.92-1.4-2-3-3.01-4.46Z"/><path fill="#DCA780" d="M5.97 32.9c-.53.53-1.06 1.72-1.98 2.38-.8.66-3.04.53-3.57 1.32-.53.8.53 1.98.53 3.97 0 .79-.67 1.32-.8 1.85-.13.66-.26 1.05 0 1.58.53.8 1.2 1.06 5.69 1.99 2.38.52 4.63 1.85 6.08 1.98 1.37.12 3.66.01 3.94-2.95l-.24.04c0-.1-1.02-1.72-2.39-3.79l-1.97-1.1-1.04-3.36c-1.64-2.35-3.1-4.34-3.52-4.56-.25.17-.47.4-.73.65Z"/></svg>