<svg width="48" height="48" viewBox="0 0 48 48" fill="none" xmlns="http://www.w3.org/2000/svg">
<path d="M3.39318 44.6834L3.36453 45.0557C3.09763 45.0557 2.85156 45.0538 2.60546 45.0565C2.14193 45.0613 1.6784 45.0688 1.21447 45.0755L1.16972 45.0782C1.10339 45.0703 0.982892 45.0704 0.979752 45.0506C0.960938 44.9444 0.965934 44.833 0.970875 44.7229L0.971511 44.7087C0.971904 44.6956 1.01703 44.6792 1.04333 44.6728L1.40403 44.592C1.62893 44.5332 1.70821 44.4358 1.71881 44.2023C1.73098 43.9393 1.74315 43.6759 1.74432 43.4128C1.74786 42.7653 1.74392 42.1185 1.74667 41.471C1.74706 41.3196 1.69487 41.2068 1.55436 41.1453C1.38739 41.0708 1.21926 40.9991 1.05001 40.93C0.969946 40.8977 0.865933 40.8799 0.875353 40.7718C0.884773 40.6618 0.985647 40.633 1.08063 40.6113C1.47391 40.521 1.86756 40.4331 2.25966 40.3368C2.38604 40.3057 2.50694 40.2533 2.65805 40.2004C2.6659 40.2824 2.68041 40.3605 2.67884 40.4386L2.6557 40.8097C2.65531 40.8515 2.67689 40.9075 2.7079 40.9308C2.72674 40.9454 2.78993 40.9189 2.82133 40.8945C3.15652 40.6382 3.51133 40.4169 3.91599 40.2879C4.5428 40.088 5.08089 40.2734 5.45769 40.8164C5.59035 41.0077 5.59073 41.0077 5.77481 40.874C6.09077 40.6433 6.42127 40.4398 6.79099 40.3057C7.60267 40.0112 8.38254 40.385 8.66474 41.2064C8.76757 41.5046 8.80682 41.8125 8.80603 42.1272L8.79858 44.2166C8.79819 44.3889 8.8551 44.4871 9.01838 44.5408C9.20167 44.6011 9.39163 44.6425 9.59808 44.6969L9.55019 45.0561C9.31549 45.0561 9.09962 45.0545 8.88375 45.0565C8.35624 45.0613 7.82873 45.064 7.30161 45.0763C7.20977 45.0786 7.18582 45.0557 7.18111 44.9694L7.1807 44.962C7.16578 44.6929 7.16578 44.6928 7.42249 44.6311L7.50964 44.6085C7.7628 44.5391 7.84718 44.461 7.84914 44.2031C7.85503 43.4625 7.87033 42.7199 7.83305 41.9809C7.79419 41.2143 7.18857 40.8061 6.44912 41.0025C6.21046 41.0682 5.98569 41.1769 5.78581 41.3235C5.71712 41.3728 5.70418 41.4296 5.70968 41.516C5.73048 41.8425 5.74341 42.1694 5.74616 42.4964C5.75087 43.0686 5.74381 43.6408 5.74616 44.2134C5.74695 44.4453 5.82584 44.534 6.05387 44.5876L6.39261 44.6661L6.4554 44.6804C6.46011 44.7892 6.46443 44.898 6.45932 45.0068C6.45618 45.0751 6.40359 45.081 6.34472 45.0798C6.01542 45.0715 5.68573 45.0604 5.35642 45.0612C4.95569 45.062 4.55536 45.0735 4.15502 45.0806H4.0608C4.0608 44.965 4.05531 44.8546 4.06473 44.7446C4.06669 44.7182 4.11302 44.6811 4.14481 44.6728L4.53965 44.5888C4.70725 44.5474 4.7873 44.4611 4.79672 44.2899C4.84147 43.4973 4.87366 42.7042 4.79948 41.912C4.7814 41.7555 4.73819 41.603 4.67153 41.4604C4.4694 41.0116 4.0145 40.8243 3.48974 40.9592C3.24051 41.0231 3.01561 41.1378 2.80288 41.2825C2.75649 41.3112 2.71838 41.3516 2.69235 41.3997C2.66632 41.4477 2.65329 41.5019 2.65452 41.5566C2.65452 42.2487 2.65663 42.9407 2.65873 43.6325L2.65963 43.9282L2.66394 44.2331C2.66865 44.4457 2.75853 44.5577 2.96851 44.6034C3.10353 44.6342 3.24011 44.655 3.39318 44.6834Z" fill="#A07250"/>
<path fill-rule="evenodd" clip-rule="evenodd" d="M15.2763 42.5878C15.2618 43.188 15.1208 43.7429 14.7519 44.2252C14.3567 44.7419 13.8134 45.0179 13.1957 45.1342C12.4652 45.2715 11.7792 45.1468 11.1924 44.6543C10.9137 44.42 10.7234 44.1199 10.5978 43.7784C10.3917 43.2184 10.3403 42.6447 10.4671 42.0598C10.6025 41.434 10.9542 40.9556 11.4993 40.6346C12.1297 40.2643 12.8099 40.0991 13.5364 40.2655C14.4705 40.48 15.0098 41.0916 15.2092 42.0176C15.2492 42.2045 15.2547 42.3978 15.2763 42.5878ZM14.2264 42.9799L14.2534 42.9838C14.213 43.2544 14.1934 43.5296 14.1282 43.7934C13.9512 44.5147 13.3177 44.8452 12.6183 44.5955C12.1697 44.4354 11.8777 44.1054 11.6928 43.6819C11.3965 43.0024 11.3364 42.2944 11.528 41.5779C11.6748 41.0293 12.1175 40.6255 12.7949 40.7225C13.2106 40.7821 13.5348 40.995 13.777 41.3346C14.1039 41.792 14.2111 42.3165 14.2264 42.867V42.9799Z" fill="#A07250"/>
<path d="M17.8396 40.1838C17.8541 40.2512 17.8832 40.3277 17.884 40.4046C17.8852 40.5509 17.8694 40.6972 17.8612 40.8436V40.9705L17.9845 40.8759C18.322 40.5967 18.6846 40.3589 19.107 40.2307C19.8692 40 20.6306 40.4193 20.8791 41.1993C20.9733 41.4959 21.0106 41.8006 21.0141 42.1106C21.0219 42.7991 21.0266 43.4877 21.0337 44.1762C21.0361 44.4235 21.0643 44.4677 21.2971 44.5391C21.4295 44.5788 21.5646 44.609 21.7014 44.6294C21.7763 44.6413 21.8085 44.6708 21.8046 44.7446L21.8053 44.8124C21.8026 45.0975 21.783 45.1105 21.5078 45.1098C20.8492 45.1086 20.191 45.1125 19.5324 45.118L19.5157 45.1182C19.3362 45.1198 19.3352 45.1198 19.3162 44.9307L19.3122 44.8187C19.3243 44.6528 19.3282 44.6522 19.4867 44.6287L19.4928 44.6278C19.6035 44.6112 19.7134 44.5856 19.8213 44.5572C19.9324 44.5284 19.9858 44.446 20.0007 44.3356C20.0081 44.2796 20.0179 44.2236 20.0176 44.1676C20.0081 43.4151 20.0203 42.662 19.9795 41.9107C19.9465 41.303 19.4849 40.941 18.8778 40.9824C18.5851 41.0028 18.3037 41.1041 18.0649 41.2754C17.9028 41.3893 17.8702 41.5538 17.871 41.7309C17.8742 42.4344 17.8808 43.1379 17.8883 43.8419C17.8899 43.9961 17.8942 44.1502 17.9087 44.3032C17.924 44.4704 17.9825 44.5379 18.1458 44.5742C18.302 44.6089 18.4613 44.629 18.6281 44.657L18.6423 44.7864C18.6478 45.088 18.6164 45.1105 18.3247 45.1093C17.6438 45.1065 16.9628 45.1109 16.2822 45.1184C16.1751 45.12 16.1295 45.086 16.1323 44.9811L16.1307 44.9362C16.113 44.6645 16.1209 44.6542 16.3768 44.6101L16.4977 44.5856C16.7748 44.5229 16.8458 44.4488 16.8498 44.166C16.8627 43.2704 16.8674 42.3753 16.8764 41.4797C16.8776 41.3511 16.8293 41.2513 16.71 41.1981C16.5426 41.1244 16.3742 41.0529 16.2049 40.9835C16.1115 40.9449 16.0047 40.9204 16.0012 40.7907C15.9988 40.6992 16.0962 40.6184 16.2292 40.5912C16.4965 40.5368 16.7662 40.4914 17.0303 40.4247C17.2933 40.3589 17.5515 40.2705 17.8396 40.1838Z" fill="#A07250"/>
<path fill-rule="evenodd" clip-rule="evenodd" d="M27.1224 40.2812C27.1833 40.5785 27.1821 40.8459 26.9647 41.0486C26.7488 41.2501 26.4756 41.1824 26.2091 41.1374C26.2338 41.2786 26.2613 41.3984 26.2747 41.5199C26.3716 42.4226 25.985 43.0926 25.1517 43.4755C24.837 43.6199 24.503 43.6735 24.1619 43.7011C23.9923 43.7145 23.844 43.8447 23.8279 43.9846C23.8114 44.1266 23.9001 44.2725 24.0775 44.3151C24.2867 44.3652 24.5049 44.3794 24.7196 44.4042C25.1804 44.4571 25.6463 44.4811 26.1016 44.564C26.79 44.6886 27.1742 45.2923 27.053 45.9871C26.945 46.6055 26.5886 47.0555 26.0918 47.4005C25.2546 47.9834 24.3361 48.1537 23.358 47.8564C22.7987 47.686 22.4043 47.3165 22.2681 46.7187C22.1998 46.4194 22.2724 46.1485 22.4965 45.9454C22.763 45.7048 23.0531 45.4903 23.3321 45.2631L23.4224 45.1721L23.3188 45.0991C23.0342 44.9634 22.8066 44.7776 22.7183 44.4551C22.6881 44.3458 22.7195 44.2741 22.8117 44.2181C22.9687 44.1231 23.1249 44.0264 23.2799 43.9282C23.353 43.8825 23.4252 43.8352 23.4931 43.7824C23.5857 43.7114 23.5775 43.6585 23.4668 43.6174C23.2093 43.522 22.9805 43.3837 22.8031 43.1707C22.5067 42.8154 22.4227 42.3922 22.4471 41.9454C22.4851 41.2474 22.8623 40.7876 23.4754 40.4918C24.2043 40.1405 24.9355 40.1184 25.6785 40.4386C25.9532 40.5569 26.2429 40.5822 26.5376 40.5616C26.7578 40.5459 26.9501 40.4622 27.1224 40.2812ZM23.3969 45.6737C23.718 45.3452 23.8895 45.2774 24.4366 45.2821C24.7753 45.2924 25.1608 45.3132 25.5336 45.4229C25.8614 45.5195 26.1306 45.6875 26.2103 46.0546C26.3064 46.4995 26.0937 46.9411 25.6659 47.1789C25.2648 47.4009 24.8299 47.4195 24.3884 47.3738C24.0104 47.3343 23.6705 47.203 23.3981 46.9226C23.0394 46.5527 23.0374 46.042 23.3969 45.6737ZM23.424 42.2258C23.3902 42.0764 23.382 41.9217 23.362 41.7691C23.3698 41.5502 23.4063 41.3408 23.4997 41.144C23.787 40.5383 24.4924 40.5746 24.8833 40.8487C25.0467 40.9643 25.1712 41.1272 25.2404 41.3156C25.4037 41.7278 25.4194 42.1842 25.2848 42.6067C25.0878 43.2416 24.5128 43.3288 24.0626 43.1257C23.6791 42.9534 23.5115 42.6131 23.424 42.2258Z" fill="#A07250"/>
<path fill-rule="evenodd" clip-rule="evenodd" d="M32.564 42.5231C32.5514 43.3596 32.3351 44.0359 31.7464 44.5434C31.0007 45.1874 29.8373 45.4063 28.8863 44.9248C28.4805 44.7193 28.1822 44.4042 27.9879 43.9952C27.69 43.3662 27.6154 42.7049 27.7708 42.0274C27.9247 41.3574 28.3286 40.872 28.933 40.5577C29.5547 40.2347 30.2094 40.1085 30.8998 40.2781C31.7731 40.4922 32.4007 41.2076 32.5255 42.1186C32.5479 42.2783 32.5565 42.4399 32.564 42.5231ZM31.5187 42.9723L31.5525 42.9762C31.5109 43.2499 31.4913 43.5295 31.4238 43.7969C31.2405 44.5209 30.6164 44.8431 29.9127 44.5943C29.5535 44.4669 29.2855 44.2248 29.1045 43.8966C28.6893 43.1438 28.6092 42.3429 28.8455 41.5211C29.0029 40.9737 29.4511 40.674 29.9845 40.7118C30.461 40.7454 30.8272 40.9753 31.096 41.3649C31.3794 41.7762 31.4893 42.2443 31.518 42.7357C31.5231 42.8146 31.5187 42.8934 31.5187 42.9723Z" fill="#A07250"/>
<path d="M25.1541 35.6309L24.7887 36.5722L25.2294 36.7446L25.1541 35.6309Z" fill="#A07250"/>
<path d="M23.6936 32.2465L23.9173 33.0191C23.9432 32.9865 23.9676 32.9531 23.9907 32.9191C24.3409 32.4005 24.3901 31.7261 24.6473 31.1436C24.7116 30.9975 24.7891 30.8564 24.8876 30.7259C24.6304 29.7583 24.4901 28.7632 24.4696 27.762L24.4499 27.7592L24.4296 27.7627C24.3499 28.5629 24.2828 29.3646 24.1854 30.1632C24.1368 30.5634 24.0331 30.9562 23.9543 31.3521L23.6936 32.2465Z" fill="#A07250"/>
<path d="M25.264 31.5569L24.8876 30.7272C24.7891 30.8576 24.7117 30.9977 24.6473 31.1436C24.3906 31.7263 24.3419 32.4015 23.9907 32.9191C23.9676 32.9531 23.9432 32.9865 23.9173 33.0191L24.1262 34.2203C24.1533 34.1915 24.1792 34.1616 24.204 34.1316C24.7137 33.5043 24.7312 32.522 25.1295 31.7766C25.1681 31.704 25.2107 31.6335 25.2582 31.5652C25.2601 31.5624 25.2621 31.5597 25.264 31.5569Z" fill="#A07250"/>
<path d="M25.264 31.5569C25.2621 31.5597 25.2601 31.5624 25.2582 31.5652C25.2107 31.6335 25.1681 31.704 25.1295 31.7766C24.7351 32.5195 24.7573 33.4614 24.204 34.1316C24.1792 34.1616 24.1533 34.1915 24.1262 34.2203L24.2262 35.4727C24.2303 35.4675 24.2344 35.4616 24.2386 35.4565C24.3255 35.3407 24.3963 35.2169 24.4563 35.0877C24.6558 34.4641 24.7971 33.6909 25.1282 33.1203C25.1564 33.0712 25.1867 33.023 25.2193 32.9758C25.2459 32.9372 25.274 32.9001 25.3028 32.8641L25.4135 32.5001C25.3551 32.2454 25.452 32.0431 25.6278 31.868L25.264 31.5569Z" fill="#A07250"/>
<path d="M25.0304 34.6779C25.0501 34.623 25.1089 34.5816 25.1498 34.5343L25.3028 32.8641C25.274 32.9001 25.2459 32.9372 25.2193 32.9758C25.1867 33.023 25.1564 33.0712 25.1282 33.1203C24.7798 33.7262 24.7429 34.4697 24.4563 35.0877C24.4411 35.1353 24.4255 35.1819 24.4095 35.2275C24.3798 35.313 24.3001 35.3816 24.2386 35.4565C24.2344 35.4616 24.2303 35.4675 24.2262 35.4727C24.2251 35.7271 24.2141 35.982 24.229 36.2352C24.2329 36.2998 24.3177 36.3601 24.3652 36.4224C24.4186 36.329 24.4868 36.2399 24.5226 36.1401L25.0304 34.6779Z" fill="#A07250"/>
<path d="M25.7291 31.9374L25.6278 31.868C25.452 32.0431 25.3551 32.2454 25.4135 32.5001L25.7291 31.9374Z" fill="#A07250"/>
<path d="M24.5226 36.1401C24.4868 36.2399 24.4186 36.329 24.3652 36.4224L24.7887 36.5722L25.1541 35.6309L25.1498 34.5343C25.1089 34.5816 25.0501 34.623 25.0304 34.6779L24.5226 36.1401Z" fill="#A07250"/>
<path d="M32.1604 21.9057C32.0883 21.9057 32.0154 21.9003 31.9432 21.9001C31.8961 21.9 31.8493 21.9021 31.8033 21.9093C30.8052 22.067 29.8082 22.2302 28.8109 22.3927C27.7799 22.5607 26.748 22.722 25.7189 22.9011C25.405 22.9554 25.027 22.9072 24.8339 23.2156C24.8253 23.2293 24.8171 23.2437 24.8093 23.2588C24.7886 23.2988 24.7706 23.3441 24.7557 23.3952L24.6851 23.4192C24.6497 24.3176 24.6164 25.2164 24.5783 26.1147C24.5677 26.3648 24.5454 26.614 24.5281 26.8632L24.4767 27.5932L24.4762 27.5943L24.4696 27.762C24.4901 28.7632 24.6304 29.7583 24.8876 30.7259L25.264 31.5556L25.6278 31.868L25.7291 31.9374C26.1192 31.6219 26.5376 31.3361 26.8932 30.9855C27.5357 30.351 28.1771 29.7077 28.7525 29.0128C29.501 28.1117 30.1404 27.1244 30.6572 26.0717C31.0022 25.3658 31.3272 24.6458 31.5961 23.9083C31.8327 23.258 31.9791 22.5746 32.1656 21.9057L32.1604 21.9057Z" fill="#DCA780"/>
<path d="M32.5235 16.2959C32.4093 14.8163 32.0631 13.3884 31.5815 11.9896C31.1671 12.0519 30.7522 12.1114 30.3377 12.1753C29.3989 12.3212 28.46 12.4672 27.522 12.6167C26.7354 12.7425 25.9501 12.8738 25.1647 13.0027L24.6843 13.0855L24.7349 20.3914L24.6851 23.4192L24.7557 23.3952C24.7706 23.3441 24.7886 23.2988 24.8093 23.2588C24.8171 23.2437 24.8253 23.2293 24.8339 23.2156C25.027 22.9072 25.405 22.9554 25.7189 22.9011C26.748 22.722 27.7799 22.5607 28.8109 22.3927C29.8082 22.2302 30.8052 22.067 31.8033 21.9093C31.8493 21.9021 31.8961 21.9 31.9432 21.9001C32.0154 21.9003 32.0883 21.9057 32.1604 21.9057L32.1656 21.9057L32.215 21.7614C32.6004 19.9556 32.6648 18.1321 32.5235 16.2959Z" fill="#DCA780"/>
<path d="M24.6843 13.0855L25.1647 13.0027C25.9501 12.8738 26.7354 12.7425 27.522 12.6167C28.46 12.4672 29.3989 12.3212 30.3377 12.1753C30.7522 12.1114 31.1671 12.0519 31.5815 11.9896C30.5834 8.86707 28.9824 6.10339 26.7272 3.72502C26.1561 3.12363 25.5222 2.57229 25.1246 1.82419C24.8731 1.35096 24.6332 0.870655 24.3883 0.393876C24.384 0.592633 24.3668 0.792163 24.3797 0.99013C24.4017 1.3344 24.457 1.6771 24.4727 2.02137C24.4746 2.06585 24.4763 2.11033 24.4781 2.15481C24.4864 2.35478 24.4934 2.55485 24.4994 2.75498C24.512 3.15187 24.5215 3.54886 24.5281 3.94589C24.5489 4.97832 24.5677 6.01112 24.5803 7.04394L24.634 11.9947C24.6353 12.0869 24.6395 12.1791 24.6451 12.2713C24.6554 12.4379 24.6702 12.6043 24.6804 12.7708L24.6843 13.0855Z" fill="#DCA780"/>
<path d="M22.177 30.9298C22.6626 31.3904 23.1869 31.8088 23.6936 32.2465L23.9543 31.3521C23.895 31.2657 23.8118 31.1873 23.7796 31.0915C22.1405 26.1821 20.5062 21.2708 18.8699 16.3606C18.3491 14.7978 17.8259 13.2362 17.2984 11.6761C17.277 11.6126 17.2244 11.56 17.1773 11.5054C17.1656 11.4919 17.1542 11.4783 17.1437 11.4643L17.1139 11.5057C16.5739 13.2886 16.3074 15.1216 16.1767 16.9723C16.1272 17.6683 16.1833 18.3738 16.2226 19.0734C16.2783 20.0727 16.451 21.0558 16.7104 22.0228C17.652 25.5377 19.5638 28.4533 22.177 30.9298Z" fill="#E3C4AD"/>
<path d="M24.6851 23.4192L24.7349 20.3914L24.5344 20.6265C24.4794 20.5086 24.4221 20.4115 24.3872 20.3066C23.5135 17.6759 22.6449 15.0444 21.7704 12.414C21.0985 10.3925 20.4207 8.37303 19.7417 6.35391C19.7099 6.25927 19.6435 6.1768 19.5929 6.08886L18.125 8.80084C18.1878 8.88326 18.278 8.95665 18.3098 9.04972C18.9841 11.0431 19.6537 13.038 20.3186 15.0345C21.1421 17.5083 21.9565 19.9849 22.7811 22.4579C23.2796 23.9525 23.7894 25.4435 24.2989 26.9503L24.5281 26.8632L24.5281 26.8621C24.5449 26.6124 24.5677 26.3632 24.5783 26.1136C24.616 25.216 24.6494 24.3176 24.6851 23.4192Z" fill="#E3C4AD"/>
<path d="M24.7349 20.3914L24.6843 13.0855L24.6804 12.7708C24.6074 12.6919 24.4979 12.6265 24.4665 12.5339C23.997 11.1489 23.5402 9.75994 23.0762 8.37259C22.8276 7.62938 22.5783 6.88646 22.3282 6.14384C22.0784 5.40248 21.8277 4.66142 21.5761 3.92066C21.5467 3.8343 21.4651 3.7661 21.4078 3.68959L19.5929 6.08886C19.6435 6.1768 19.7099 6.25927 19.7417 6.35391C20.4207 8.37303 21.0985 10.3925 21.7704 12.414C22.6449 15.0444 23.5135 17.6759 24.3872 20.3066C24.4221 20.4115 24.4794 20.5086 24.5344 20.6265L24.7349 20.3914Z" fill="#E3C4AD"/>
<path d="M17.1437 11.4643C17.1542 11.4783 17.1656 11.4919 17.1773 11.5054C17.2244 11.56 17.277 11.6126 17.2984 11.6761C17.8259 13.2362 18.3491 14.7978 18.8699 16.3606C20.5062 21.2708 22.1405 26.1821 23.7796 31.0915C23.8118 31.1873 23.895 31.2657 23.9543 31.3521C24.0331 30.9562 24.1368 30.5634 24.1854 30.1632C24.2828 29.3646 24.3499 28.5629 24.4296 27.7627L24.4762 27.5943L24.5281 26.8632L24.2989 26.9503C23.7894 25.4435 23.2796 23.9525 22.7811 22.4579C21.9565 19.9849 21.1421 17.5083 20.3186 15.0345C19.6537 13.038 18.9841 11.0431 18.3098 9.04972C18.278 8.95665 18.1878 8.88326 18.125 8.80084L17.1437 11.4643Z" fill="#E3C4AD"/>
<path d="M21.4078 3.68959C21.4651 3.7661 21.5467 3.8343 21.5761 3.92066C21.8277 4.66142 22.0784 5.40248 22.3282 6.14384C22.5783 6.88646 22.8276 7.62938 23.0762 8.37259C23.5402 9.75994 23.997 11.1489 24.4665 12.5339C24.4979 12.6265 24.6074 12.6919 24.6804 12.7708C24.6702 12.6043 24.6554 12.4379 24.6451 12.2713C24.6395 12.1791 24.6353 12.0869 24.634 11.9947L24.5803 7.04394C24.5677 6.01112 24.5489 4.97832 24.5281 3.94589C24.5201 3.54906 24.5113 3.15172 24.4994 2.75498C24.4934 2.55485 24.4864 2.35478 24.4781 2.15481C24.4763 2.11033 24.4746 2.06585 24.4727 2.02137C24.457 1.6771 24.4017 1.3344 24.3797 0.99013C24.3668 0.792163 24.384 0.592633 24.3883 0.393876L24.2325 0L24.1893 0.155009C24.1689 0.933076 23.7301 1.46066 23.1842 1.95282C22.5699 2.50689 21.9981 3.1087 21.4078 3.68959Z" fill="#E3C4AD"/>
<path fill-rule="evenodd" clip-rule="evenodd" d="M33.5036 38.2518C33.5699 38.1237 33.6335 38.0105 33.6877 37.8934C33.7218 37.8185 33.7744 37.8035 33.8486 37.8055C34.2933 37.8181 34.738 37.8319 35.183 37.8362C35.561 37.8401 35.9398 37.833 36.3181 37.8287C36.7444 37.8236 37.1706 37.8011 37.5965 37.8134C38.1636 37.8299 38.7163 37.9415 39.2292 38.1951C39.8419 38.4984 40.3055 38.9601 40.6214 39.5686C40.8201 39.9545 40.944 40.3746 40.9868 40.8069C41.0543 41.441 41.01 42.0606 40.8098 42.6671C40.5617 43.4187 40.0908 43.9941 39.4365 44.4251C38.9329 44.7568 38.3807 44.9528 37.7888 45.0648C37.1624 45.1835 36.534 45.1452 35.9056 45.1472C35.2164 45.15 34.5276 45.135 33.8384 45.1271C33.7179 45.1259 33.7006 45.103 33.7324 44.9875L33.7618 44.881C33.829 44.6688 33.8651 44.6594 34.0794 44.6239C34.2313 44.5999 34.3765 44.5444 34.506 44.461C34.5782 44.4129 34.608 44.2875 34.6363 44.1909C34.6606 44.1065 34.6618 44.0138 34.6626 43.9247L34.6649 43.6108C34.674 42.3648 34.683 41.1192 34.6881 39.8738C34.6896 39.5324 34.6811 39.191 34.6626 38.8501C34.6493 38.6115 34.5225 38.4482 34.2399 38.3918C34.0201 38.348 33.7987 38.3142 33.5777 38.2751L33.5036 38.2518ZM39.721 40.7169C39.7689 40.982 39.7834 41.2533 39.8133 41.5222C39.7889 42.1366 39.7065 42.7342 39.4145 43.2815C39.0456 43.9713 38.4957 44.4314 37.7095 44.5525C37.2173 44.6286 36.724 44.6065 36.2549 44.42C35.9574 44.3017 35.8471 44.0434 35.8377 43.7382C35.8291 43.44 35.826 43.1411 35.8256 42.8422C35.824 41.7916 35.824 40.7411 35.8256 39.6905C35.826 39.3593 35.8314 39.028 35.8369 38.6967C35.8405 38.4633 35.8891 38.3855 36.1152 38.3666C37.1082 38.283 38.0557 38.3911 38.8426 39.0926C39.3293 39.5268 39.6064 40.0808 39.721 40.7169Z" fill="#DCA780"/>
<path fill-rule="evenodd" clip-rule="evenodd" d="M41.7243 45.0995C41.7149 44.9358 41.7816 44.8005 41.864 44.6763C41.8864 44.6428 41.9633 44.6444 42.0163 44.6338L42.4661 44.5442C42.6251 44.5103 42.7087 44.4031 42.7311 44.2465C42.746 44.1432 42.7601 44.0387 42.7613 43.9342C42.7719 43.1073 42.7797 42.2803 42.7844 41.4533C42.7884 40.6251 42.7852 39.797 42.7852 38.9688L42.7817 38.8106C42.7656 38.5444 42.6376 38.4064 42.3747 38.3674L41.8044 38.2802C41.7341 38.2708 41.7086 38.2368 41.7341 38.1741C41.7781 38.0673 41.8201 37.9565 41.8821 37.8603C41.9052 37.8248 41.9834 37.8109 42.036 37.8121C42.3083 37.8161 42.5807 37.8366 42.8531 37.8362L45.2242 37.822C45.681 37.8216 46.1222 37.9017 46.5319 38.1214C46.9829 38.3627 47.2353 38.7361 47.3075 39.2448C47.3829 39.7792 47.2215 40.2296 46.833 40.5873C46.6732 40.7347 46.4664 40.8309 46.2811 40.9508L46.2207 40.9887C46.3926 41.0522 46.5563 41.107 46.7156 41.1724C47.1819 41.3645 47.5528 41.6646 47.749 42.1438C47.9041 42.522 47.9041 42.9163 47.8122 43.3083C47.6694 43.9219 47.2671 44.3301 46.7439 44.6389C46.2529 44.9287 45.7215 45.0975 45.1555 45.1259C44.6335 45.1524 44.1091 45.1424 43.5859 45.1484L43.2829 45.15C42.7787 45.1384 42.2744 45.1257 41.7702 45.1121L41.7243 45.0995ZM43.9026 42.6983H43.8975C43.8975 42.3291 43.8987 41.9604 43.8967 41.592C43.8964 41.5124 43.9097 41.4631 44.0062 41.4659C44.3501 41.4765 44.6943 41.4773 45.0381 41.4904C45.345 41.5022 45.6331 41.5917 45.9032 41.738C46.3149 41.9608 46.5625 42.3007 46.6308 42.7692C46.6823 43.1249 46.6599 43.4731 46.51 43.8016C46.3078 44.2437 45.9393 44.4764 45.4773 44.5572C45.1094 44.6203 44.7323 44.6036 44.3713 44.5083C44.1012 44.4389 43.9913 44.2209 43.9372 43.9792C43.9011 43.8175 43.9069 43.6447 43.9038 43.4767C43.8991 43.2172 43.9026 42.9578 43.9026 42.6983ZM45.2418 40.9C45.0303 40.9213 44.8175 40.924 44.6295 40.9335L44.0011 40.9055C43.9179 40.9027 43.8811 40.8657 43.8822 40.7797L43.9066 38.6151C43.9089 38.4491 43.9823 38.3769 44.1464 38.3726C44.5514 38.3615 44.9541 38.3639 45.3447 38.5039C45.8506 38.6853 46.1614 39.1238 46.1555 39.6589C46.1536 39.8644 46.1567 40.0679 46.081 40.2655C45.9322 40.6547 45.6469 40.8594 45.2418 40.9Z" fill="#DCA780"/>
</svg>
