<svg xmlns="http://www.w3.org/2000/svg" width="66" height="49" fill="none"><path fill="#DCA780" d="M65.26 43.43 46.03 9.45a4.06 4.06 0 0 0-3.24-2.16 3.58 3.58 0 0 0-3.13 2.16l-2.5 4.37 2.23 3.89 3.42-6.07 19.02 33.48H54.6a3.26 3.26 0 0 1-.3 1.98l-.06.13A4.14 4.14 0 0 1 51 48.98h11.06a4.13 4.13 0 0 0 3.49-1.75 3.61 3.61 0 0 0-.3-3.8Z"/><path fill="#A07250" fill-rule="evenodd" d="M20.06 47.05c.04.1.08.19.13.27a3.6 3.6 0 0 0 2.65 1.66h28.18-.27.21a4.13 4.13 0 0 0 3.28-1.75l.06-.13c.06-.1.1-.22.15-.33.19-.53.24-1.1.15-1.65-.1-.6-.32-1.17-.63-1.7L39.4 17.73l-.01-.01-2.22-3.9-.08.14-2.12 3.77v-.01h-.01L20.39 43.44a5.21 5.21 0 0 0-.58 1.76c-.09.63 0 1.28.25 1.86Zm30.43-1.93-13.32-23.5-13.32 23.5H50.5Z" clip-rule="evenodd"/><path fill="#E3C4AD" d="M19.83 45.12H4.28l23.1-40.77 7.58 13.36 2.13-3.76.08-.13-6.61-11.68A4.05 4.05 0 0 0 27.33 0a3.59 3.59 0 0 0-3.13 2.16L.8 43.43a4.16 4.16 0 0 0-.21 3.9A3.6 3.6 0 0 0 4 48.97h18.8a3.6 3.6 0 0 1-2.64-1.66 3.44 3.44 0 0 1-.34-2.2Z"/></svg>