<svg xmlns="http://www.w3.org/2000/svg" width="48" height="48" fill="none"><path fill="#A07250" fill-rule="evenodd" d="M36.57 12.24v5.08a7.34 7.34 0 0 1-7.15 7.26H17.98a5.84 5.84 0 0 0-5.72 5.82v10.9c0 3.11 2.7 4.94 5.72 5.83a19.17 19.17 0 0 0 11.44 0c2.88-.84 5.73-2.52 5.73-5.82v-4.37H23.7V35.5h17.16c3.33 0 4.57-2.32 5.73-5.8 1.2-3.6 1.14-7.04 0-11.64-.82-3.32-2.4-5.81-5.73-5.81h-4.3ZM32.3 42.03c0-1.2-.96-2.18-2.15-2.18-1.18 0-2.15.98-2.15 2.18 0 1.2.97 2.19 2.15 2.19 1.19 0 2.15-.98 2.15-2.2Z" clip-rule="evenodd"/><path fill="#DCA780" fill-rule="evenodd" d="M23.46 0c-1.96.01-3.83.18-5.48.47-4.84.85-5.72 2.65-5.72 5.95v4.36H23.7v1.46H7.96c-3.33 0-6.24 2-7.15 5.8a21.4 21.4 0 0 0 0 11.64c.81 3.4 2.75 5.8 6.08 5.8h3.94v-5.22a7.28 7.28 0 0 1 7.15-7.12h11.44a5.77 5.77 0 0 0 5.73-5.82V6.42c0-3.1-2.62-5.43-5.73-5.95-1.97-.33-4-.48-5.96-.47ZM19.4 5.7c0-1.2-.96-2.19-2.15-2.19-1.18 0-2.15.98-2.15 2.19 0 1.2.97 2.17 2.15 2.17 1.19 0 2.15-.97 2.15-2.17Z" clip-rule="evenodd"/></svg>