<svg width="25" height="26" viewBox="0 0 25 26" fill="none" xmlns="http://www.w3.org/2000/svg">
<path d="M1 1V25C4.17117 21.8348 8.20721 13 6.40541 13C1.00002 13 1.92492 5.40238 1 1Z" fill="#E3C4AD"/>
<path fill-rule="evenodd" clip-rule="evenodd" d="M23.2111 13.8944C23.9482 13.5259 23.9482 12.4741 23.2111 12.1056L1 1C1.92492 5.40238 1.00002 13 6.40541 13C8.20721 13 4.17117 21.8348 1 25L23.2111 13.8944Z" fill="#DCA780"/>
<path d="M1 25V1M1 25C4.17117 21.8348 8.20721 13 6.4054 13C1.00002 13 1.92492 5.40238 1 1M1 25L23.2111 13.8944C23.9482 13.5259 23.9482 12.4741 23.2111 12.1056L1 1" stroke="#664100" stroke-width="2" stroke-miterlimit="1"/>
</svg>
