<svg xmlns="http://www.w3.org/2000/svg" width="50" height="50" fill="none"><path fill="#E3C4AD" d="M1 49h48c-6.3-6.3-24-14.4-24-10.8 0 8.3-9 9.1-17 9.9h-.5c-2.3.3-4.6.5-6.5.9Z"/><path fill="#A07250" d="M49 6a5 5 0 0 0-5-5H25l12 24h7a5 5 0 0 0 5-5V6Z"/><path fill="#DCA780" fill-rule="evenodd" d="M25 1 1 49c2-.4 4.2-.6 6.5-.9H8c8-.8 17-1.6 17-10 0-3.5 17.7 4.6 24 10.9L37 25 25 1Zm0 27.6a3.6 3.6 0 1 0 0-7.2 3.6 3.6 0 0 0 0 7.2Z" clip-rule="evenodd"/><path stroke="#664100" stroke-miterlimit="1" d="M25 1 1 49M25 1h19a5 5 0 0 1 5 5v14a5 5 0 0 1-5 5h-7M25 1l12 24m12 24H1m48 0c-6.3-6.3-24-14.4-24-10.8 0 8.3-9 9.1-17 9.9h-.5c-2.3.3-4.6.5-6.5.9m48 0L37 25m-8.4 0a3.6 3.6 0 1 1-7.2 0 3.6 3.6 0 0 1 7.2 0Z"/></svg>