<svg width="70" height="48" viewBox="0 0 70 48" fill="none" xmlns="http://www.w3.org/2000/svg">
<path fill-rule="evenodd" clip-rule="evenodd" d="M67.025 4.55286C65.1263 1.237 63.0656 0.627092 58.87 0.395154C54.6788 0.115969 44.1394 0 35.0088 0C25.8606 0 15.3169 0.115969 11.13 0.390859C6.94312 0.627092 4.87813 1.23271 2.96187 4.55286C1.00625 7.86442 0 13.5684 0 23.6104V23.6233V23.6362V23.6448C0 33.6439 1.00625 39.3908 2.96187 42.668C4.87813 45.9839 6.93875 46.5852 11.1256 46.8644C15.3169 47.1049 25.8606 47.2467 35.0088 47.2467C44.1394 47.2467 54.6787 47.1049 58.8744 46.8687C63.07 46.5895 65.1306 45.9882 67.0294 42.6723C69.0025 39.3951 70 33.6482 70 23.6491V23.6276V23.6147C70 13.5684 69.0025 7.86442 67.025 4.55286ZM26.25 10.7379V36.5088L48.125 23.6233L26.25 10.7379Z" fill="#A07250"/>
<path d="M26.25 36.5088V10.7379L48.125 23.6233L26.25 36.5088Z" fill="#E3C4AD"/>
</svg>
